<svg viewBox="0 0 86 34.0645" xmlns="http://www.w3.org/2000/svg" xmlns:xlink="http://www.w3.org/1999/xlink" width="86.000000" height="34.064453" fill="none" customFrame="#000000">
	<defs>
		<filter id="pixso_custom_mask_type_alpha">
			<feColorMatrix type="matrix" values="0 0 0 0 1 0 0 0 0 1 0 0 0 0 1 0 0 0 1 0 " />
		</filter>
	</defs>
	<mask id="mask_12" width="18.251785" height="20.000000" x="0.000000" y="0.000000" maskUnits="userSpaceOnUse">
		<g filter="url(#pixso_custom_mask_type_alpha)">
			<path id="Clip 20" d="M0 0L18.2518 0L18.2518 20L0 20L0 0Z" fill="rgb(255,255,255)" fill-rule="evenodd" />
		</g>
	</mask>
	<g id="编组 5">
		<path id="" d="M3.3125 30.9688L3.84766 31.2793C3.69792 31.5736 3.49609 31.793 3.24219 31.9375C2.98958 32.0807 2.70117 32.1523 2.37695 32.1523C2.00326 32.1523 1.66406 32.0618 1.35938 31.8809C1.05599 31.6986 0.816406 31.4434 0.640625 31.1152C0.464844 30.7871 0.376953 30.4102 0.376953 29.9844C0.376953 29.5573 0.464844 29.1797 0.640625 28.8516C0.816406 28.5234 1.05599 28.2689 1.35938 28.0879C1.66406 27.9069 2.00326 27.8164 2.37695 27.8164C2.70117 27.8164 2.98958 27.8887 3.24219 28.0332C3.49609 28.1764 3.69792 28.3945 3.84766 28.6875L3.3125 29C3.08333 28.6367 2.76562 28.4551 2.35938 28.4551C1.98698 28.4551 1.68294 28.5911 1.44727 28.8633C1.21289 29.1354 1.0957 29.5091 1.0957 29.9844C1.0957 30.4583 1.21289 30.8314 1.44727 31.1035C1.68294 31.3757 1.98698 31.5117 2.35938 31.5117C2.76562 31.5117 3.08333 31.3307 3.3125 30.9688ZM6.27119 27.8164C6.62405 27.8164 6.95218 27.9069 7.25556 28.0879C7.56025 28.2689 7.80309 28.5247 7.98408 28.8555C8.16507 29.1862 8.25556 29.5625 8.25556 29.9844C8.25556 30.4049 8.16507 30.7793 7.98408 31.1074C7.80309 31.4355 7.56025 31.6921 7.25556 31.877C6.95218 32.0605 6.62405 32.1523 6.27119 32.1523C5.91963 32.1523 5.5902 32.0605 5.28291 31.877C4.97692 31.6921 4.73343 31.4355 4.55244 31.1074C4.37145 30.7793 4.28095 30.4049 4.28095 29.9844C4.28095 29.5677 4.37275 29.194 4.55634 28.8633C4.73994 28.5326 4.98343 28.2754 5.28681 28.0918C5.5915 27.9082 5.91963 27.8164 6.27119 27.8164ZM6.27119 31.5117C6.51207 31.5117 6.72822 31.4505 6.91963 31.3281C7.11233 31.2057 7.26338 31.0299 7.37275 30.8008C7.48213 30.5703 7.53681 30.2982 7.53681 29.9844C7.53681 29.6693 7.48213 29.3971 7.37275 29.168C7.26338 28.9388 7.11233 28.763 6.91963 28.6406C6.72822 28.5169 6.51207 28.4551 6.27119 28.4551C6.0316 28.4551 5.81546 28.5169 5.62275 28.6406C5.43134 28.763 5.27965 28.9388 5.16767 29.168C5.05569 29.3971 4.9997 29.6693 4.9997 29.9844C4.9997 30.2982 5.05569 30.5703 5.16767 30.8008C5.27965 31.0299 5.43134 31.2057 5.62275 31.3281C5.81546 31.4505 6.0316 31.5117 6.27119 31.5117ZM12.7199 29.5039L12.7199 32.0645L12.0402 32.0645L12.0402 29.6953C12.0402 29.3008 11.9614 28.9974 11.8039 28.7852C11.6463 28.5716 11.4132 28.4648 11.1047 28.4648C10.9015 28.4648 10.7108 28.5117 10.5324 28.6055C10.354 28.6979 10.2088 28.8366 10.0968 29.0215C9.98486 29.2051 9.92887 29.4323 9.92887 29.7031L9.92887 32.0645L9.24723 32.0645L9.24723 27.9121L9.8488 27.9121C9.85921 28.179 9.87484 28.4082 9.89567 28.5996C10.035 28.3444 10.2231 28.1504 10.4601 28.0176C10.6971 27.8835 10.9621 27.8164 11.255 27.8164C11.6978 27.8164 12.0526 27.9629 12.3195 28.2559C12.5864 28.5488 12.7199 28.9648 12.7199 29.5039ZM16.1763 31.8887C15.9419 32.0645 15.6509 32.1523 15.3033 32.1523C14.466 32.1523 14.0474 31.6751 14.0474 30.7207L14.0474 28.4961L13.3599 28.4961L13.3599 27.9043L14.0474 27.9043L14.0474 26.7441L14.7368 26.7441L14.7368 27.9043L15.9361 27.9043L15.9361 28.4961L14.7368 28.4961L14.7368 30.6406C14.7368 30.9766 14.7967 31.2057 14.9165 31.3281C15.0363 31.4505 15.1919 31.5117 15.3833 31.5117C15.5812 31.5117 15.7603 31.4583 15.9204 31.3516L16.1763 31.8887ZM20.0324 29.5352L20.0324 32.0645L19.4328 32.0645C19.4159 31.7923 19.4048 31.6159 19.3996 31.5352C19.272 31.7383 19.1001 31.8919 18.884 31.9961C18.6678 32.1003 18.4211 32.1523 18.1437 32.1523C17.8768 32.1523 17.6275 32.1029 17.3957 32.0039C17.1639 31.9049 16.9784 31.7585 16.839 31.5645C16.701 31.3691 16.632 31.1354 16.632 30.8633C16.632 30.4531 16.7987 30.1296 17.132 29.8926C17.4653 29.6543 17.8957 29.5352 18.423 29.5352C18.7225 29.5352 19.0324 29.5755 19.3527 29.6562C19.3527 28.8398 19.0272 28.4316 18.3762 28.4316C17.9061 28.4316 17.5565 28.6478 17.3273 29.0801L16.8078 28.7832C16.9354 28.485 17.1444 28.2493 17.4347 28.0762C17.7264 27.903 18.0532 27.8164 18.4152 27.8164C18.7251 27.8164 19.0025 27.8848 19.2472 28.0215C19.4933 28.1569 19.6854 28.3542 19.8234 28.6133C19.9627 28.8711 20.0324 29.1784 20.0324 29.5352ZM19.3527 30.5273L19.3527 30.2246C19.0168 30.1387 18.7101 30.0957 18.4328 30.0957C18.0851 30.0957 17.8169 30.1628 17.6281 30.2969C17.4393 30.4297 17.3449 30.6159 17.3449 30.8555C17.3449 31.0794 17.4243 31.2546 17.5832 31.3809C17.7433 31.5059 17.9517 31.5684 18.2082 31.5684C18.5233 31.5684 18.7928 31.4766 19.0168 31.293C19.2407 31.1081 19.3527 30.8529 19.3527 30.5273ZM23.8965 30.9688L24.4317 31.2793C24.2819 31.5736 24.0801 31.793 23.8262 31.9375C23.5736 32.0807 23.2852 32.1523 22.961 32.1523C22.5873 32.1523 22.2481 32.0618 21.9434 31.8809C21.64 31.6986 21.4004 31.4434 21.2246 31.1152C21.0488 30.7871 20.961 30.4102 20.961 29.9844C20.961 29.5573 21.0488 29.1797 21.2246 28.8516C21.4004 28.5234 21.64 28.2689 21.9434 28.0879C22.2481 27.9069 22.5873 27.8164 22.961 27.8164C23.2852 27.8164 23.5736 27.8887 23.8262 28.0332C24.0801 28.1764 24.2819 28.3945 24.4317 28.6875L23.8965 29C23.6673 28.6367 23.3496 28.4551 22.9434 28.4551C22.571 28.4551 22.2669 28.5911 22.0313 28.8633C21.7969 29.1354 21.6797 29.5091 21.6797 29.9844C21.6797 30.4583 21.7969 30.8314 22.0313 31.1035C22.2669 31.3757 22.571 31.5117 22.9434 31.5117C23.3496 31.5117 23.6673 31.3307 23.8965 30.9688ZM27.4323 31.8887C27.1979 32.0645 26.9069 32.1523 26.5592 32.1523C25.722 32.1523 25.3034 31.6751 25.3034 30.7207L25.3034 28.4961L24.6159 28.4961L24.6159 27.9043L25.3034 27.9043L25.3034 26.7441L25.9928 26.7441L25.9928 27.9043L27.1921 27.9043L27.1921 28.4961L25.9928 28.4961L25.9928 30.6406C25.9928 30.9766 26.0527 31.2057 26.1725 31.3281C26.2923 31.4505 26.4479 31.5117 26.6393 31.5117C26.8372 31.5117 27.0163 31.4583 27.1764 31.3516L27.4323 31.8887ZM34.9681 29.4004C34.9681 30.0189 34.8522 30.5202 34.6204 30.9043C34.3887 31.2884 34.0488 31.4805 33.6009 31.4805C33.3392 31.4805 33.1146 31.4141 32.9271 31.2812C32.7409 31.1471 32.6159 30.9518 32.5521 30.6953C32.4193 30.957 32.2376 31.1523 32.0072 31.2812C31.778 31.4089 31.5332 31.4727 31.2728 31.4727C30.9837 31.4727 30.7135 31.3952 30.4622 31.2402C30.2122 31.0853 30.0111 30.8613 29.8587 30.5684C29.7077 30.2754 29.6322 29.9284 29.6322 29.5273C29.6322 29.1276 29.7077 28.7812 29.8587 28.4883C30.0111 28.1953 30.2122 27.9714 30.4622 27.8164C30.7135 27.6615 30.9837 27.584 31.2728 27.584C31.5124 27.584 31.7389 27.6387 31.9525 27.748C32.166 27.8574 32.3418 28.0189 32.4798 28.2324C32.4954 28.1257 32.5091 27.9388 32.5208 27.6719L33.095 27.6719L33.095 30.0879C33.095 30.6165 33.2715 30.8809 33.6243 30.8809C33.8861 30.8809 34.071 30.7474 34.179 30.4805C34.2884 30.2135 34.3431 29.8691 34.3431 29.4473C34.3431 28.8236 34.2233 28.2904 33.9837 27.8477C33.7441 27.4049 33.4108 27.0677 32.9837 26.8359C32.5566 26.6042 32.0631 26.4883 31.5033 26.4883C30.9225 26.4883 30.4043 26.6152 29.9486 26.8691C29.4928 27.1217 29.1367 27.4759 28.8802 27.9316C28.6237 28.3874 28.4954 28.9115 28.4954 29.5039C28.4954 30.0911 28.6204 30.6126 28.8704 31.0684C29.1217 31.5241 29.4727 31.877 29.9232 32.127C30.375 32.3783 30.8887 32.5039 31.4642 32.5039C31.7845 32.5039 32.0833 32.4635 32.3607 32.3828C32.638 32.3034 32.8802 32.1947 33.0872 32.0566L33.3685 32.5352C33.1549 32.7174 32.8828 32.8574 32.5521 32.9551C32.2213 33.054 31.8587 33.1035 31.4642 33.1035C30.7702 33.1035 30.151 32.9512 29.6068 32.6465C29.0638 32.3431 28.64 31.9199 28.3353 31.377C28.0319 30.8327 27.8802 30.2083 27.8802 29.5039C27.8802 28.7995 28.0358 28.1732 28.347 27.625C28.6595 27.0755 29.0918 26.6491 29.6439 26.3457C30.196 26.041 30.8216 25.8887 31.5208 25.8887C32.1927 25.8887 32.7884 26.0273 33.3079 26.3047C33.8275 26.582 34.2337 26.9863 34.5267 27.5176C34.821 28.0475 34.9681 28.6751 34.9681 29.4004ZM32.4408 29.5273C32.4408 29.0794 32.334 28.7507 32.1204 28.541C31.9069 28.3301 31.6478 28.2246 31.3431 28.2246C31.0293 28.2246 30.7825 28.3379 30.6029 28.5645C30.4245 28.791 30.3353 29.112 30.3353 29.5273C30.3353 29.9492 30.4258 30.2734 30.6068 30.5C30.7891 30.7266 31.0345 30.8398 31.3431 30.8398C31.6478 30.8398 31.9069 30.7344 32.1204 30.5234C32.334 30.3125 32.4408 29.9805 32.4408 29.5273ZM37.6392 27.8164C37.9921 27.8164 38.3202 27.9069 38.6236 28.0879C38.9282 28.2689 39.1711 28.5247 39.3521 28.8555C39.5331 29.1862 39.6236 29.5625 39.6236 29.9844C39.6236 30.4049 39.5331 30.7793 39.3521 31.1074C39.1711 31.4355 38.9282 31.6921 38.6236 31.877C38.3202 32.0605 37.9921 32.1523 37.6392 32.1523C37.2876 32.1523 36.9582 32.0605 36.6509 31.877C36.3449 31.6921 36.1014 31.4355 35.9204 31.1074C35.7394 30.7793 35.649 30.4049 35.649 29.9844C35.649 29.5677 35.7407 29.194 35.9243 28.8633C36.1079 28.5326 36.3514 28.2754 36.6548 28.0918C36.9595 27.9082 37.2876 27.8164 37.6392 27.8164ZM37.6392 31.5117C37.8801 31.5117 38.0962 31.4505 38.2876 31.3281C38.4803 31.2057 38.6314 31.0299 38.7407 30.8008C38.8501 30.5703 38.9048 30.2982 38.9048 29.9844C38.9048 29.6693 38.8501 29.3971 38.7407 29.168C38.6314 28.9388 38.4803 28.763 38.2876 28.6406C38.0962 28.5169 37.8801 28.4551 37.6392 28.4551C37.3996 28.4551 37.1835 28.5169 36.9907 28.6406C36.7993 28.763 36.6477 28.9388 36.5357 29.168C36.4237 29.3971 36.3677 29.6693 36.3677 29.9844C36.3677 30.2982 36.4237 30.5703 36.5357 30.8008C36.6477 31.0299 36.7993 31.2057 36.9907 31.3281C37.1835 31.4505 37.3996 31.5117 37.6392 31.5117ZM44.4805 29.9844C44.4805 30.4323 44.3952 30.8203 44.2246 31.1484C44.054 31.4766 43.8288 31.7259 43.5488 31.8965C43.2689 32.0671 42.9714 32.1523 42.6562 32.1523C42.3893 32.1523 42.1341 32.0898 41.8906 31.9648C41.6484 31.8385 41.4505 31.653 41.2969 31.4082L41.2969 33.9922L40.6152 33.9922L40.6152 27.9121L41.2168 27.9121C41.2272 28.179 41.2428 28.4134 41.2637 28.6152C41.4134 28.3496 41.612 28.1504 41.8594 28.0176C42.1081 27.8835 42.3737 27.8164 42.6562 27.8164C42.9714 27.8164 43.2689 27.903 43.5488 28.0762C43.8288 28.2493 44.054 28.5 44.2246 28.8281C44.3952 29.1562 44.4805 29.5417 44.4805 29.9844ZM43.7676 29.9844C43.7676 29.4987 43.6582 29.1224 43.4395 28.8555C43.2207 28.5885 42.9303 28.4551 42.5684 28.4551C42.3496 28.4551 42.1439 28.5059 41.9512 28.6074C41.7598 28.709 41.6029 28.8743 41.4805 29.1035C41.3581 29.3327 41.2969 29.6263 41.2969 29.9844C41.2969 30.3411 41.3581 30.6341 41.4805 30.8633C41.6029 31.0924 41.7598 31.2578 41.9512 31.3594C42.1439 31.4609 42.3496 31.5117 42.5684 31.5117C42.9303 31.5117 43.2207 31.3789 43.4395 31.1133C43.6582 30.8464 43.7676 30.4701 43.7676 29.9844ZM48.9751 29.7129C48.9751 29.8613 48.9647 29.9967 48.9439 30.1191L45.9517 30.1191C45.979 30.5944 46.1151 30.9479 46.3599 31.1797C46.6047 31.4115 46.9139 31.5273 47.2876 31.5273C47.7525 31.5273 48.0884 31.3411 48.2955 30.9688L48.8169 31.2637C48.7102 31.5462 48.5109 31.765 48.2193 31.9199C47.9289 32.0749 47.6053 32.1523 47.2486 32.1523C46.8749 32.1523 46.5344 32.0671 46.2271 31.8965C45.9211 31.7259 45.6789 31.4766 45.5005 31.1484C45.3221 30.8203 45.233 30.4271 45.233 29.9688C45.233 29.526 45.3221 29.1419 45.5005 28.8164C45.6789 28.4909 45.9172 28.2428 46.2154 28.0723C46.5149 27.9017 46.843 27.8164 47.1997 27.8164C47.5578 27.8164 47.871 27.9004 48.1392 28.0684C48.4087 28.2363 48.6151 28.4642 48.7583 28.752C48.9029 29.0397 48.9751 29.36 48.9751 29.7129ZM45.9751 29.5684L48.2408 29.5684C48.2238 29.2103 48.119 28.9329 47.9263 28.7363C47.7349 28.5384 47.4849 28.4395 47.1763 28.4395C46.8768 28.4395 46.6164 28.5358 46.3951 28.7285C46.1737 28.9199 46.0337 29.1999 45.9751 29.5684ZM53.3199 29.5039L53.3199 32.0645L52.6402 32.0645L52.6402 29.6953C52.6402 29.3008 52.5614 28.9974 52.4039 28.7852C52.2463 28.5716 52.0132 28.4648 51.7047 28.4648C51.5015 28.4648 51.3108 28.5117 51.1324 28.6055C50.954 28.6979 50.8088 28.8366 50.6968 29.0215C50.5849 29.2051 50.5289 29.4323 50.5289 29.7031L50.5289 32.0645L49.8472 32.0645L49.8472 27.9121L50.4488 27.9121C50.4592 28.179 50.4748 28.4082 50.4957 28.5996C50.635 28.3444 50.8231 28.1504 51.0601 28.0176C51.2971 27.8835 51.5621 27.8164 51.855 27.8164C52.2978 27.8164 52.6526 27.9629 52.9195 28.2559C53.1864 28.5488 53.3199 28.9648 53.3199 29.5039ZM57.9911 29.7129C57.9911 29.8613 57.9807 29.9967 57.9599 30.1191L54.9677 30.1191C54.995 30.5944 55.1311 30.9479 55.3759 31.1797C55.6207 31.4115 55.9299 31.5273 56.3036 31.5273C56.7685 31.5273 57.1044 31.3411 57.3115 30.9688L57.8329 31.2637C57.7262 31.5462 57.5269 31.765 57.2353 31.9199C56.9449 32.0749 56.6213 32.1523 56.2646 32.1523C55.8909 32.1523 55.5504 32.0671 55.2431 31.8965C54.9371 31.7259 54.6949 31.4766 54.5165 31.1484C54.3381 30.8203 54.249 30.4271 54.249 29.9688C54.249 29.526 54.3381 29.1419 54.5165 28.8164C54.6949 28.4909 54.9332 28.2428 55.2314 28.0723C55.5309 27.9017 55.859 27.8164 56.2157 27.8164C56.5738 27.8164 56.887 27.9004 57.1552 28.0684C57.4247 28.2363 57.6311 28.4642 57.7743 28.752C57.9189 29.0397 57.9911 29.36 57.9911 29.7129ZM54.9911 29.5684L57.2568 29.5684C57.2398 29.2103 57.135 28.9329 56.9423 28.7363C56.7509 28.5384 56.5009 28.4395 56.1923 28.4395C55.8928 28.4395 55.6324 28.5358 55.4111 28.7285C55.1897 28.9199 55.0497 29.1999 54.9911 29.5684ZM61.5917 27.9043L62.2714 27.9043L62.2714 32.0645L61.6718 32.0645C61.6614 31.7923 61.6458 31.5658 61.625 31.3848C61.4856 31.64 61.2955 31.832 61.0546 31.9609C60.8151 32.0885 60.554 32.1523 60.2714 32.1523C59.8287 32.1523 59.4739 32.0059 59.207 31.7129C58.9414 31.4186 58.8085 31.0026 58.8085 30.4648L58.8085 27.9043L59.4882 27.9043L59.4882 30.2793C59.4882 30.6738 59.567 30.9779 59.7246 31.1914C59.8821 31.4049 60.1126 31.5117 60.416 31.5117C60.6191 31.5117 60.8098 31.4655 60.9882 31.373C61.1666 31.2793 61.3118 31.1393 61.4238 30.9531C61.5358 30.7656 61.5917 30.5358 61.5917 30.2637L61.5917 27.9043ZM63.5032 32.0645L63.5032 25.9766L64.1849 25.9766L64.1849 32.0645L63.5032 32.0645ZM68.9191 29.7129C68.9191 29.8613 68.9087 29.9967 68.8879 30.1191L65.8957 30.1191C65.923 30.5944 66.0591 30.9479 66.3039 31.1797C66.5487 31.4115 66.8579 31.5273 67.2316 31.5273C67.6965 31.5273 68.0324 31.3411 68.2394 30.9688L68.7609 31.2637C68.6542 31.5462 68.4549 31.765 68.1633 31.9199C67.8729 32.0749 67.5493 32.1523 67.1926 32.1523C66.8189 32.1523 66.4784 32.0671 66.1711 31.8965C65.8651 31.7259 65.6229 31.4766 65.4445 31.1484C65.2661 30.8203 65.1769 30.4271 65.1769 29.9688C65.1769 29.526 65.2661 29.1419 65.4445 28.8164C65.6229 28.4909 65.8612 28.2428 66.1594 28.0723C66.4588 27.9017 66.787 27.8164 67.1437 27.8164C67.5018 27.8164 67.815 27.9004 68.0832 28.0684C68.3527 28.2363 68.5591 28.4642 68.7023 28.752C68.8469 29.0397 68.9191 29.36 68.9191 29.7129ZM65.9191 29.5684L68.1848 29.5684C68.1678 29.2103 68.063 28.9329 67.8703 28.7363C67.6789 28.5384 67.4289 28.4395 67.1203 28.4395C66.8208 28.4395 66.5604 28.5358 66.3391 28.7285C66.1177 28.9199 65.9777 29.1999 65.9191 29.5684ZM72.1604 28.0566L71.9123 28.6074C71.7951 28.5059 71.6487 28.4551 71.4729 28.4551C71.1838 28.4551 70.9449 28.5833 70.7561 28.8398C70.5673 29.0964 70.4729 29.4642 70.4729 29.9434L70.4729 32.0645L69.7912 32.0645L69.7912 27.9121L70.3928 27.9121C70.4032 28.1309 70.4162 28.3548 70.4319 28.584C70.6662 28.0723 71.021 27.8164 71.4963 27.8164C71.6395 27.8164 71.7684 27.8392 71.883 27.8848C71.9989 27.929 72.0914 27.9863 72.1604 28.0566ZM71.8087 31.6875C71.8087 31.5599 71.8523 31.4512 71.9395 31.3613C72.0281 31.2702 72.1335 31.2246 72.2559 31.2246C72.3835 31.2246 72.4916 31.2702 72.5801 31.3613C72.6687 31.4512 72.713 31.5599 72.713 31.6875C72.713 31.8164 72.6687 31.9258 72.5801 32.0156C72.4916 32.1068 72.3835 32.1523 72.2559 32.1523C72.1335 32.1523 72.0281 32.1055 71.9395 32.0117C71.8523 31.918 71.8087 31.8099 71.8087 31.6875ZM75.3352 27.8164C75.6881 27.8164 76.0162 27.9069 76.3196 28.0879C76.6243 28.2689 76.8671 28.5247 77.0481 28.8555C77.2291 29.1862 77.3196 29.5625 77.3196 29.9844C77.3196 30.4049 77.2291 30.7793 77.0481 31.1074C76.8671 31.4355 76.6243 31.6921 76.3196 31.877C76.0162 32.0605 75.6881 32.1523 75.3352 32.1523C74.9836 32.1523 74.6542 32.0605 74.3469 31.877C74.0409 31.6921 73.7974 31.4355 73.6164 31.1074C73.4354 30.7793 73.345 30.4049 73.345 29.9844C73.345 29.5677 73.4368 29.194 73.6203 28.8633C73.8039 28.5326 74.0474 28.2754 74.3508 28.0918C74.6555 27.9082 74.9836 27.8164 75.3352 27.8164ZM75.3352 31.5117C75.5761 31.5117 75.7922 31.4505 75.9836 31.3281C76.1763 31.2057 76.3274 31.0299 76.4368 30.8008C76.5461 30.5703 76.6008 30.2982 76.6008 29.9844C76.6008 29.6693 76.5461 29.3971 76.4368 29.168C76.3274 28.9388 76.1763 28.763 75.9836 28.6406C75.7922 28.5169 75.5761 28.4551 75.3352 28.4551C75.0956 28.4551 74.8795 28.5169 74.6868 28.6406C74.4953 28.763 74.3437 28.9388 74.2317 29.168C74.1197 29.3971 74.0637 29.6693 74.0637 29.9844C74.0637 30.2982 74.1197 30.5703 74.2317 30.8008C74.3437 31.0299 74.4953 31.2057 74.6868 31.3281C74.8795 31.4505 75.0956 31.5117 75.3352 31.5117ZM80.6804 28.0566L80.4323 28.6074C80.3151 28.5059 80.1687 28.4551 79.9929 28.4551C79.7038 28.4551 79.4649 28.5833 79.2761 28.8398C79.0873 29.0964 78.9929 29.4642 78.9929 29.9434L78.9929 32.0645L78.3112 32.0645L78.3112 27.9121L78.9128 27.9121C78.9232 28.1309 78.9362 28.3548 78.9519 28.584C79.1862 28.0723 79.5411 27.8164 80.0163 27.8164C80.1595 27.8164 80.2884 27.8392 80.403 27.8848C80.5189 27.929 80.6114 27.9863 80.6804 28.0566ZM84.6642 27.9043L84.6642 31.8008C84.6642 32.3555 84.5666 32.8021 84.3713 33.1406C84.1773 33.4792 83.9344 33.7174 83.6427 33.8555C83.3524 33.9948 83.0451 34.0645 82.7209 34.0645C82.3042 34.0645 81.9266 33.9642 81.5881 33.7637C81.2495 33.5645 81.0347 33.2936 80.9435 32.9512L81.4631 32.6562C81.5816 32.918 81.7515 33.1113 81.9728 33.2363C82.1942 33.3613 82.4461 33.4238 82.7287 33.4238C83.5659 33.4238 83.9845 32.877 83.9845 31.7832L83.9845 31.4238C83.8296 31.6699 83.633 31.8529 83.3947 31.9727C83.1577 32.0924 82.9032 32.1523 82.631 32.1523C82.3172 32.1523 82.0203 32.0658 81.7404 31.8926C81.4605 31.7194 81.2339 31.4688 81.0607 31.1406C80.8875 30.8125 80.8009 30.4271 80.8009 29.9844C80.8009 29.5417 80.8862 29.1549 81.0568 28.8242C81.2274 28.4935 81.4539 28.2428 81.7365 28.0723C82.0191 27.9017 82.3172 27.8164 82.631 27.8164C82.9084 27.8164 83.1707 27.8835 83.4181 28.0176C83.6668 28.1504 83.8661 28.347 84.0158 28.6074C84.0431 28.3574 84.0594 28.123 84.0646 27.9043L84.6642 27.9043ZM83.9845 29.9844C83.9845 29.4609 83.8589 29.0768 83.6076 28.832C83.3576 28.5872 83.0588 28.4648 82.7111 28.4648C82.3491 28.4648 82.0588 28.5983 81.84 28.8652C81.6213 29.1309 81.5119 29.5039 81.5119 29.9844C81.5119 30.4701 81.6213 30.8464 81.84 31.1133C82.0588 31.3789 82.3491 31.5117 82.7111 31.5117C83.0588 31.5117 83.3576 31.3893 83.6076 31.1445C83.8589 30.8984 83.9845 30.5117 83.9845 29.9844Z" fill="rgb(255,255,255)" fill-rule="nonzero" />
		<g id="logo/openeuler/白色">
			<g id="编组">
				<path id="Fill 1" d="M34.0159 7.73488C34.6426 7.28437 35.4169 7.0144 36.2583 7.0144C38.3365 7.0144 40.021 8.6406 40.021 10.6469C40.021 12.653 38.3365 14.2793 36.2583 14.2793C35.4169 14.2793 34.6426 14.0094 34.0159 13.5589L34.0159 16.4881C34.0159 16.5509 33.9632 16.6017 33.8982 16.6017L32.4456 16.6017C32.3808 16.6017 32.3281 16.5509 32.3281 16.4881L32.3281 7.12792C32.3281 7.06523 32.3808 7.0144 32.4456 7.0144L33.8982 7.0144C33.9632 7.0144 34.0159 7.06523 34.0159 7.12792L34.0159 7.73488ZM34.2305 10.6468C34.2305 11.7281 35.1387 12.6047 36.2586 12.6047C37.3786 12.6047 38.2867 11.7281 38.2867 10.6468C38.2867 9.56555 37.3786 8.68896 36.2586 8.68896C35.1387 8.68896 34.2305 9.56555 34.2305 10.6468Z" fill="rgb(255,255,255)" fill-rule="evenodd" />
				<path id="Fill 3" d="M46.1523 12.0578C46.1665 12.0443 46.1789 12.0296 46.1915 12.0154C46.2184 11.9853 46.2494 12.0004 46.2759 12.0133C46.2804 12.0155 46.2848 12.0177 46.289 12.0195C46.3162 12.0313 46.3422 12.0424 46.4937 12.1077C46.7692 12.2265 47.0445 12.3455 47.3194 12.465C47.49 12.5391 47.6623 12.6096 47.8309 12.6877C47.8539 12.6984 47.8505 12.7204 47.844 12.7297C47.5251 13.1914 47.1207 13.5659 46.6197 13.8426C46.0391 14.1632 45.3985 14.3237 44.6991 14.3237C43.6697 14.3237 42.7908 13.97 42.0627 13.2629C41.3346 12.5557 40.9707 11.6966 40.9707 10.686C40.9707 9.6029 41.3819 8.70011 42.2048 7.97821C42.9263 7.34973 43.7557 7.0354 44.6927 7.0354C45.37 7.0354 46.0068 7.19903 46.6032 7.52584C47.1993 7.85319 47.6646 8.29697 47.9988 8.85754C48.1597 9.12725 48.2819 9.40731 48.3654 9.69756C48.3654 9.69756 48.5005 10.1672 48.5004 10.6731C48.5003 10.8842 48.4757 11.0921 48.4757 11.0921C48.4646 11.1791 48.3628 11.1784 48.3585 11.1784L48.3583 11.1784C47.9488 11.1783 47.0655 11.1783 46.6559 11.1784L42.932 11.1784C42.932 11.1784 42.8798 11.1783 42.8688 11.1784C42.8522 11.1786 42.8387 11.1911 42.8323 11.2017C42.8265 11.2114 42.8239 11.2249 42.8289 11.2438C42.8545 11.3407 42.8875 11.4335 42.9271 11.5224C43.0171 11.7247 43.1432 11.9058 43.309 12.0638C43.6815 12.4194 44.1538 12.5968 44.7255 12.5968C45.2972 12.5968 45.7727 12.4172 46.1523 12.0578ZM43.3163 9.2986C43.6935 8.94107 44.1657 8.76221 44.733 8.76221C45.3136 8.76221 45.79 8.93894 46.163 9.29232C46.2959 9.41832 46.39 9.5367 46.4739 9.69059C46.4834 9.70812 46.5065 9.74805 46.5125 9.767C46.5297 9.8203 46.4879 9.8203 46.4879 9.8203L42.991 9.8203C42.991 9.8203 42.9403 9.8203 42.9646 9.77205C42.9889 9.72388 43.016 9.67713 43.0447 9.63135C43.1195 9.51208 43.2086 9.40043 43.3163 9.2986Z" fill="rgb(255,255,255)" fill-rule="evenodd" />
				<path id="Fill 5" d="M52.7082 7.03992C50.9751 7.03992 49.5703 8.39614 49.5703 10.0692L49.5703 11.9713L49.5703 13.3459L49.5703 14.1667C49.5703 14.2344 49.6271 14.2892 49.6971 14.2892L51.2572 14.2892C51.3273 14.2892 51.3841 14.2344 51.3841 14.1667L51.3841 13.3459L51.3841 12.8126L51.3841 11.9713L51.3841 10.0692C51.3841 9.36313 51.9769 8.79087 52.7082 8.79087C53.4393 8.79087 54.0322 9.36313 54.0322 10.0692L54.0322 11.9713L54.0322 12.8126L54.0322 13.3459L54.0322 14.1667C54.0322 14.2344 54.089 14.2892 54.159 14.2892L55.7191 14.2892C55.7892 14.2892 55.846 14.2344 55.846 14.1667L55.846 13.3459L55.846 11.9713L55.846 10.0692C55.846 8.39614 54.4411 7.03992 52.7082 7.03992Z" fill="rgb(255,255,255)" fill-rule="evenodd" />
				<path id="Fill 7" d="M62.9575 6.6394C63.0276 6.6394 63.0843 6.5845 63.0843 6.51694L63.0843 5.00869C63.0843 4.94104 63.0276 4.88623 62.9575 4.88623L58.643 4.88623L56.9891 4.88623C56.9191 4.88623 56.8623 4.94104 56.8623 5.00869L56.8623 6.51694L56.8623 8.45021L56.8623 9.95837L56.8623 12.6686L56.8623 14.1769C56.8623 14.2445 56.9191 14.2993 56.9891 14.2993L58.643 14.2993L62.9575 14.2993C63.0276 14.2993 63.0843 14.2445 63.0843 14.1769L63.0843 12.6686C63.0843 12.601 63.0276 12.5462 62.9575 12.5462L58.7698 12.5462L58.7698 10.0809L62.7427 10.0809C62.8128 10.0809 62.8696 10.026 62.8696 9.95837L62.8696 8.45021C62.8696 8.38256 62.8128 8.32775 62.7427 8.32775L58.7698 8.32775L58.7698 6.6394L62.9575 6.6394Z" fill="rgb(255,255,255)" fill-rule="evenodd" />
				<path id="Fill 9" d="M66.9074 14.2708C65.1744 14.2708 63.7695 12.9146 63.7695 11.2416L63.7695 9.33947L63.7695 7.96474L63.7695 7.14394C63.7695 7.07638 63.8263 7.02148 63.8965 7.02148L65.4565 7.02148C65.5266 7.02148 65.5833 7.07638 65.5833 7.14394L65.5833 7.96474L65.5833 8.49813L65.5833 9.33947L65.5833 11.2416C65.5833 11.9475 66.1762 12.5198 66.9074 12.5198C67.6386 12.5198 68.2314 11.9475 68.2314 11.2416L68.2314 9.33947L68.2314 8.49813L68.2314 7.96474L68.2314 7.14394C68.2314 7.07638 68.2882 7.02148 68.3584 7.02148L69.9184 7.02148C69.9884 7.02148 70.0452 7.07638 70.0452 7.14394L70.0452 7.96474L70.0452 9.33947L70.0452 11.2416C70.0452 12.9146 68.6404 14.2708 66.9074 14.2708Z" fill="rgb(255,255,255)" fill-rule="evenodd" />
				<path id="Fill 11" d="M72.7666 14.2576L71.0487 14.2576C71.0234 14.2576 71.0029 14.2378 71.0029 14.2133L71.0029 4.9305C71.0029 4.90606 71.0234 4.88623 71.0487 4.88623L72.7666 4.88623C72.7919 4.88623 72.8124 4.90606 72.8124 4.9305L72.8124 14.2133C72.8124 14.2378 72.7919 14.2576 72.7666 14.2576Z" fill="rgb(255,255,255)" fill-rule="evenodd" />
				<path id="Fill 13" d="M85.4933 7.32684C84.9052 7.44 84.3996 7.70386 84.0146 8.06105L84.0146 7.14125C84.0146 7.07361 83.9579 7.0188 83.8879 7.0188L82.4314 7.0188C82.3616 7.0188 82.3047 7.07361 82.3047 7.14125L82.3047 14.1813C82.3047 14.2489 82.3616 14.3037 82.4314 14.3037L83.8879 14.3037C83.9579 14.3037 84.0146 14.2489 84.0146 14.1813L84.0146 10.5182C84.0476 10.1567 84.1543 9.8986 84.41 9.63695C84.7732 9.21592 85.2783 8.96189 85.8928 8.84369C85.9202 8.83846 85.9481 8.83554 85.9481 8.83554C85.9759 8.83315 85.9995 8.81748 85.9995 8.78427C85.9971 7.88254 85.9989 7.5544 85.9994 7.53589C86.0007 7.49162 85.9996 7.34092 85.9996 7.30462C85.9996 7.28301 85.9949 7.27141 85.9602 7.27363C85.9602 7.27363 85.7182 7.28354 85.4933 7.32684Z" fill="rgb(255,255,255)" fill-rule="evenodd" />
				<path id="Fill 15" d="M78.9453 12.0249C78.9595 12.0114 78.9718 11.9968 78.9846 11.9824C79.0114 11.9524 79.0423 11.9675 79.0689 11.9804C79.0734 11.9826 79.0778 11.9848 79.0821 11.9867C79.1093 11.9984 79.1352 12.0095 79.2868 12.0748C79.5622 12.1936 79.8374 12.3127 80.1124 12.4321C80.283 12.5062 80.4553 12.5767 80.6239 12.6548C80.647 12.6655 80.6435 12.6876 80.6371 12.6969C80.3181 13.1585 79.9136 13.5331 79.4128 13.8097C78.8321 14.1303 78.1916 14.2908 77.4921 14.2908C76.4627 14.2908 75.5838 13.937 74.8557 13.23C74.1276 12.5228 73.7637 11.6637 73.7637 10.6531C73.7637 9.57003 74.1749 8.66724 74.9978 7.94526C75.7192 7.31686 76.5487 7.00244 77.4857 7.00244C78.163 7.00244 78.7999 7.16616 79.3962 7.49297C79.9923 7.82023 80.4576 8.26401 80.7918 8.82467C80.9527 9.09438 81.0748 9.37444 81.1585 9.66469C81.1585 9.66469 81.2935 10.1343 81.2934 10.6403C81.2934 10.8514 81.2686 11.0593 81.2686 11.0593C81.2577 11.1462 81.1558 11.1455 81.1514 11.1455L81.1513 11.1455C80.7418 11.1454 79.8585 11.1454 79.449 11.1455L75.725 11.1455C75.725 11.1455 75.6729 11.1454 75.6617 11.1455C75.6452 11.1458 75.6317 11.1582 75.6254 11.1689C75.6195 11.1785 75.6169 11.1921 75.6219 11.2108C75.6475 11.3078 75.6805 11.4007 75.7202 11.4896C75.8102 11.6918 75.9362 11.873 76.1019 12.0309C76.4745 12.3865 76.9468 12.564 77.5185 12.564C78.0903 12.564 78.5658 12.3843 78.9453 12.0249ZM76.1093 9.26573C76.4864 8.9082 76.9587 8.72925 77.5259 8.72925C78.1066 8.72925 78.583 8.90607 78.9559 9.25945C79.0889 9.38545 79.183 9.50383 79.2668 9.65763C79.2765 9.67525 79.2994 9.71518 79.3055 9.73413C79.3227 9.78743 79.2809 9.78743 79.2809 9.78743L75.784 9.78743C75.784 9.78743 75.7333 9.78743 75.7576 9.73918C75.7819 9.69101 75.8089 9.64426 75.8377 9.59848C75.9126 9.47921 76.0017 9.36756 76.1093 9.26573Z" fill="rgb(255,255,255)" fill-rule="evenodd" />
				<path id="Fill 17" d="M27.3517 4.99031L30.8555 6.94323C31.1047 7.08225 31.2584 7.33911 31.2584 7.61705L31.2584 11.5229C31.2584 11.801 31.1047 12.0579 30.8555 12.1969L27.3517 14.1499C27.1021 14.2887 26.795 14.2887 26.5455 14.1499L23.0418 12.1969C22.7925 12.0579 22.6387 11.801 22.6387 11.5229L22.6387 7.61705C22.6387 7.33911 22.7923 7.08225 23.0418 6.94323L26.5455 4.99031C26.795 4.85121 27.1021 4.85121 27.3517 4.99031ZM29.1967 10.6358C29.1967 10.7529 29.132 10.8611 29.0269 10.9197L27.1168 11.9844C27.0118 12.043 26.8822 12.043 26.7771 11.9844L24.8671 10.9197C24.7617 10.8611 24.6973 10.7529 24.6973 10.6358L24.6973 8.50649C24.6973 8.38934 24.7617 8.28114 24.8671 8.22235L26.7771 7.15779C26.8822 7.09926 27.0118 7.09926 27.1168 7.15779L29.0269 8.22235C29.132 8.28114 29.1967 8.38934 29.1967 8.50649L29.1967 10.6358Z" fill="rgb(255,255,255)" fill-rule="evenodd" />
				<g id="编组" mask="url(#mask_12)">
					<path id="Fill 19" d="M9.75605 0.16323L17.6217 4.55403C18.0117 4.77167 18.2518 5.17392 18.2518 5.60911L18.2518 14.3908C18.2518 14.8262 18.0117 15.2282 17.6217 15.446L9.75605 19.8369C9.36611 20.0544 8.88578 20.0544 8.49593 19.8369L0.630061 15.446C0.240119 15.2282 0 14.8262 0 14.3908L0 5.60911C0 5.17392 0.240119 4.77167 0.630061 4.55403L8.49593 0.16323C8.88578 -0.0544101 9.36611 -0.0544101 9.75605 0.16323ZM10.7307 7.19271C11.3959 7.39805 12.3168 7.21582 12.746 6.79223C13.1598 6.38378 12.9342 5.92618 12.2797 5.76291C11.9211 5.67348 11.5026 5.68898 11.1325 5.78451C10.8252 5.83419 10.5077 5.82914 10.2411 5.75822C9.96971 5.68597 9.80248 5.55873 9.74479 5.41042C9.74158 5.38394 9.73444 5.35844 9.72492 5.33347C9.72446 5.33002 9.72373 5.32674 9.72336 5.32329L9.7208 5.32258C9.662 5.18419 9.50733 5.07112 9.264 5.01046C9.25576 5.00852 9.24697 5.00701 9.23873 5.00515C8.99842 4.93122 8.68074 4.91546 8.34382 4.97584C7.67887 5.09529 7.19249 5.46567 7.25724 5.8032C7.26045 5.82011 7.24991 5.96098 7.24543 5.99144C7.22436 6.13532 7.10403 6.2932 6.90997 6.44363C6.71995 6.59088 6.5671 6.67385 6.31078 6.74805C6.24328 6.76762 6.05161 6.78922 5.94181 6.79489C5.90635 6.79672 5.86325 6.79748 5.81576 6.79832C5.6935 6.80047 5.54208 6.80314 5.41669 6.82597C5.16238 6.87219 4.93005 6.99137 4.8229 7.114C4.65531 7.30632 4.64606 7.48252 4.6587 7.66076C4.67848 7.77356 4.67527 7.88008 4.6739 7.88468L4.67271 7.88557C4.65989 8.09205 4.51254 8.33059 4.22984 8.54982C3.94191 8.77295 3.57404 8.92941 3.21679 8.99918L3.21524 9.00042C2.8405 9.06347 2.44305 9.22497 2.11684 9.47095C1.48468 9.94749 1.3376 10.5785 1.82993 10.8758C2.11867 11.05 2.55862 11.0668 3.00818 10.9492C3.36707 10.8973 3.71086 10.9348 3.97103 11.0801C4.12351 11.1651 4.23597 11.2748 4.30383 11.4069C4.35438 11.5054 4.36427 11.5824 4.36427 11.5824C4.37673 11.631 4.37792 11.7217 4.37792 11.7238L4.37838 11.726C4.32673 12.114 4.43296 12.447 4.7989 12.6678C5.46679 13.071 6.59568 12.8611 7.25843 12.2071C7.8916 11.5824 7.81285 10.8263 7.13865 10.5081C6.77178 10.3351 6.29741 10.3228 5.84537 10.441C5.48199 10.4924 5.13088 10.4563 4.86493 10.3214C4.59496 10.1844 4.45658 9.97104 4.46437 9.73534C4.4662 9.67823 4.50851 9.51141 4.54313 9.43783C4.60375 9.30953 4.70952 9.09649 4.94671 8.87071C5.247 8.58507 5.60443 8.48802 5.77843 8.44375C5.90581 8.41125 6.11223 8.37114 6.15793 8.36734C6.5052 8.33856 6.81574 8.33484 7.08132 8.44012C7.34543 8.54478 7.53967 8.71248 7.55533 8.9218C7.5752 9.19 7.70671 9.48024 8.08026 9.639C8.75428 9.92553 9.76869 9.7302 10.2957 9.20992C10.802 8.71053 10.6329 8.128 9.96394 7.90036C9.59863 7.77604 9.15319 7.78047 8.74631 7.8861C8.41333 7.93701 8.07897 7.91922 7.81019 7.82155C7.53683 7.72212 7.35706 7.56106 7.34873 7.37281C7.34296 7.23849 7.42721 6.87706 7.68043 6.67349C7.88391 6.50995 8.12843 6.40742 8.41049 6.31657C8.51562 6.28266 8.67973 6.24839 8.75785 6.2391C9.06464 6.20297 9.3706 6.1958 9.63535 6.27239C9.89837 6.34827 10.1372 6.48861 10.1456 6.64171C10.1565 6.84049 10.3607 7.07849 10.7307 7.19271ZM16.372 7.79787C15.9697 8.29044 14.9353 8.49028 14.1134 8.23669C13.3293 7.99461 13.0766 7.43927 13.5013 7.00159C13.9107 6.58012 14.8264 6.39817 15.5896 6.58862C16.3869 6.78749 16.7581 7.32513 16.372 7.79787ZM11.1921 14.3006C10.5365 15.1077 9.22723 15.3408 8.35065 14.8118C7.52525 14.3134 7.45235 13.3495 8.11584 12.6635C8.74865 12.009 9.87332 11.7985 10.6923 12.185C11.5578 12.5933 11.8143 13.5345 11.1921 14.3006Z" fill="rgb(255,255,255)" fill-rule="evenodd" />
				</g>
			</g>
		</g>
	</g>
</svg>
