<svg viewBox="0 0 16 16" xmlns="http://www.w3.org/2000/svg" xmlns:xlink="http://www.w3.org/1999/xlink" width="16.000000" height="16.000000" fill="none" customFrame="#000000">
	<rect id="icon/01公共图标/鲲鹏/24px/导航搜索" width="16.000000" height="16.000000" x="0.000000" y="0.000000" />
	<rect id="矩形" width="16.000000" height="16.000000" x="0.000000" y="0.000000" fill="rgb(216,216,216)" fill-opacity="0" />
	<rect id="矩形" width="15.333333" height="15.333333" x="0.333333" y="0.333333" stroke="rgb(151,151,151)" stroke-opacity="0" stroke-width="0.666667" />
	<path id="椭圆形" d="M1.20215 6.8123C1.20215 3.7288 3.70182 1.22913 6.78532 1.22913C9.86883 1.22913 12.3685 3.7288 12.3685 6.8123C12.3685 9.8958 9.86883 12.3955 6.78532 12.3955C3.70182 12.3955 1.20215 9.8958 1.20215 6.8123ZM11.3685 6.8123C11.3685 4.28108 9.31654 2.22913 6.78532 2.22913C4.25411 2.22913 2.20215 4.28108 2.20215 6.8123C2.20215 9.34352 4.25411 11.3955 6.78532 11.3955C9.31654 11.3955 11.3685 9.34352 11.3685 6.8123Z" fill="rgb(0,0,0)" fill-opacity="0.800000012" fill-rule="evenodd" />
	<path id="路径" d="M11.2066 11.1586C11.4016 10.9631 11.7182 10.9627 11.9137 11.1577L14.0009 13.2399C14.1964 13.4349 14.1968 13.7515 14.0017 13.947C13.8067 14.1425 13.4901 14.1429 13.2946 13.9479L11.2074 11.8657C11.0119 11.6707 11.0115 11.3541 11.2066 11.1586Z" fill="rgb(0,0,0)" fill-opacity="0.800000012" fill-rule="evenodd" />
</svg>
