<svg viewBox="0 0 136.001 32" xmlns="http://www.w3.org/2000/svg" xmlns:xlink="http://www.w3.org/1999/xlink" width="136.000977" height="32.000000" fill="none" customFrame="#000000">
	<defs>
		<filter id="pixso_custom_mask_type_alpha">
			<feColorMatrix type="matrix" values="0 0 0 0 1 0 0 0 0 1 0 0 0 0 1 0 0 0 1 0 " />
		</filter>
	</defs>
	<mask id="mask_1" width="28.863289" height="32.000000" x="0.000000" y="0.000000" maskUnits="userSpaceOnUse">
		<g filter="url(#pixso_custom_mask_type_alpha)">
			<path id="Clip 20" d="M0 0L28.8633 0L28.8633 32L0 32L0 0Z" fill="rgb(196,196,196)" fill-rule="evenodd" />
		</g>
	</mask>
	<g id="编组">
		<g id="组合 3">
			<path id="Fill 1" d="M53.7863 12.3762C54.7773 11.6553 56.0017 11.2234 57.3324 11.2234C60.6188 11.2234 63.2827 13.8253 63.2827 17.0354C63.2827 20.2451 60.6188 22.8473 57.3324 22.8473C56.0017 22.8473 54.7773 22.4155 53.7863 21.6945L53.7863 26.3814C53.7863 26.4818 53.7028 26.5631 53.6002 26.5631L51.303 26.5631C51.2005 26.5631 51.1172 26.4818 51.1172 26.3814L51.1172 11.405C51.1172 11.3047 51.2005 11.2234 51.303 11.2234L53.6002 11.2234C53.7028 11.2234 53.7863 11.3047 53.7863 11.405L53.7863 12.3762ZM54.1279 17.0347C54.1279 18.7648 55.5641 20.1673 57.3352 20.1673C59.1063 20.1673 60.5424 18.7648 60.5424 17.0347C60.5424 15.3046 59.1063 13.9021 57.3352 13.9021C55.5641 13.9021 54.1279 15.3046 54.1279 17.0347Z" fill="rgb(255,255,255)" fill-rule="evenodd" />
			<path id="Fill 3" d="M72.9852 19.2929C73.0076 19.2714 73.0272 19.2478 73.0472 19.225C73.0897 19.1769 73.1387 19.2011 73.1807 19.2218C73.1878 19.2253 73.1947 19.2287 73.2014 19.2317C73.2444 19.2505 73.2855 19.2682 73.5251 19.3728C73.9607 19.5628 74.396 19.7533 74.8308 19.9444C75.1006 20.063 75.3732 20.1758 75.6396 20.3007C75.6761 20.3179 75.6708 20.3531 75.6605 20.368C75.1561 21.1067 74.5165 21.706 73.7244 22.1485C72.8062 22.6615 71.7932 22.9184 70.6871 22.9184C69.0592 22.9184 67.6693 22.3524 66.5179 21.221C65.3665 20.0896 64.791 18.715 64.791 17.098C64.791 15.3651 65.4413 13.9206 66.7426 12.7656C67.8835 11.76 69.1952 11.2571 70.677 11.2571C71.748 11.2571 72.7551 11.5189 73.6983 12.0418C74.6409 12.5655 75.3768 13.2756 75.9052 14.1725C76.1597 14.604 76.3529 15.0521 76.485 15.5165C76.485 15.5165 76.6986 16.2679 76.6984 17.0775C76.6983 17.4152 76.6593 17.7478 76.6593 17.7478C76.6419 17.887 76.4808 17.8859 76.474 17.8858L76.4738 17.8858C75.8262 17.8857 74.4294 17.8857 73.7816 17.8858L67.8927 17.8858C67.8927 17.8858 67.8101 17.8857 67.7926 17.8858C67.7664 17.8862 67.7451 17.9062 67.735 17.9232C67.7257 17.9387 67.7216 17.9603 67.7296 17.9905C67.77 18.1455 67.8223 18.2941 67.8848 18.4363C68.0272 18.7599 68.2266 19.0498 68.4888 19.3025C69.0779 19.8715 69.8247 20.1554 70.7289 20.1554C71.633 20.1554 72.3849 19.8679 72.9852 19.2929ZM68.5012 14.8776C69.0976 14.3056 69.8445 14.0194 70.7415 14.0194C71.6597 14.0194 72.413 14.3022 73.0029 14.8676C73.213 15.0692 73.3619 15.2586 73.4946 15.5048C73.5096 15.5329 73.5461 15.5968 73.5557 15.6271C73.5828 15.7124 73.5167 15.7124 73.5167 15.7124L67.9867 15.7124C67.9867 15.7124 67.9066 15.7124 67.945 15.6352C67.9834 15.5581 68.0262 15.4833 68.0717 15.41C68.19 15.2192 68.3309 15.0406 68.5012 14.8776Z" fill="rgb(255,255,255)" fill-rule="evenodd" />
			<path id="Fill 5" d="M83.3548 11.2639C80.6141 11.2639 78.3926 13.4339 78.3926 16.1107L78.3926 19.1541L78.3926 21.3535L78.3926 22.6668C78.3926 22.775 78.4824 22.8627 78.5932 22.8627L81.0602 22.8627C81.1711 22.8627 81.2609 22.775 81.2609 22.6668L81.2609 21.3535L81.2609 20.5002L81.2609 19.1541L81.2609 16.1107C81.2609 14.9811 82.1984 14.0654 83.3548 14.0654C84.511 14.0654 85.4486 14.9811 85.4486 16.1107L85.4486 19.1541L85.4486 20.5002L85.4486 21.3535L85.4486 22.6668C85.4486 22.775 85.5384 22.8627 85.6492 22.8627L88.1162 22.8627C88.2271 22.8627 88.3169 22.775 88.3169 22.6668L88.3169 21.3535L88.3169 19.1541L88.3169 16.1107C88.3169 13.4339 86.0952 11.2639 83.3548 11.2639Z" fill="rgb(255,255,255)" fill-rule="evenodd" />
			<path id="Fill 7" d="M99.5618 10.6229C99.6726 10.6229 99.7623 10.5351 99.7623 10.427L99.7623 8.0138C99.7623 7.90556 99.6726 7.81787 99.5618 7.81787L92.7388 7.81787L90.1234 7.81787C90.0126 7.81787 89.9229 7.90556 89.9229 8.0138L89.9229 10.427L89.9229 13.5202L89.9229 15.9333L89.9229 20.2697L89.9229 22.6829C89.9229 22.7911 90.0126 22.8788 90.1234 22.8788L92.7388 22.8788L99.5618 22.8788C99.6726 22.8788 99.7623 22.7911 99.7623 22.6829L99.7623 20.2697C99.7623 20.1614 99.6726 20.0737 99.5618 20.0737L92.9393 20.0737L92.9393 16.1294L99.222 16.1294C99.3329 16.1294 99.4227 16.0415 99.4227 15.9333L99.4227 13.5202C99.4227 13.412 99.3329 13.3243 99.222 13.3243L92.9393 13.3243L92.9393 10.6229L99.5618 10.6229Z" fill="rgb(255,255,255)" fill-rule="evenodd" />
			<path id="Fill 9" d="M105.808 22.8333C103.067 22.8333 100.846 20.6634 100.846 17.9865L100.846 14.9432L100.846 12.7436L100.846 11.4303C100.846 11.3222 100.935 11.2344 101.046 11.2344L103.513 11.2344C103.624 11.2344 103.714 11.3222 103.714 11.4303L103.714 12.7436L103.714 13.597L103.714 14.9432L103.714 17.9865C103.714 19.116 104.652 20.0317 105.808 20.0317C106.964 20.0317 107.902 19.116 107.902 17.9865L107.902 14.9432L107.902 13.597L107.902 12.7436L107.902 11.4303C107.902 11.3222 107.992 11.2344 108.102 11.2344L110.569 11.2344C110.68 11.2344 110.77 11.3222 110.77 11.4303L110.77 12.7436L110.77 14.9432L110.77 17.9865C110.77 20.6634 108.548 22.8333 105.808 22.8333Z" fill="rgb(255,255,255)" fill-rule="evenodd" />
			<path id="Fill 11" d="M115.074 22.8121L112.358 22.8121C112.318 22.8121 112.285 22.7803 112.285 22.7412L112.285 7.88871C112.285 7.84961 112.318 7.81787 112.358 7.81787L115.074 7.81787C115.114 7.81787 115.147 7.84961 115.147 7.88871L115.147 22.7412C115.147 22.7803 115.114 22.8121 115.074 22.8121Z" fill="rgb(255,255,255)" fill-rule="evenodd" />
			<path id="Fill 13" d="M135.2 11.7229C134.27 11.9039 133.47 12.3261 132.861 12.8976L132.861 11.4259C132.861 11.3177 132.772 11.23 132.661 11.23L130.358 11.23C130.247 11.23 130.157 11.3177 130.157 11.4259L130.157 22.69C130.157 22.7982 130.247 22.8859 130.358 22.8859L132.661 22.8859C132.772 22.8859 132.861 22.7982 132.861 22.69L132.861 16.8291C132.913 16.2506 133.082 15.8377 133.487 15.419C134.061 14.7454 134.86 14.3389 135.831 14.1498C135.875 14.1414 135.919 14.1368 135.919 14.1368C135.963 14.1329 136 14.1079 136 14.0547C135.996 12.612 135.999 12.0869 136 12.0573C136.002 11.9865 136 11.7454 136 11.6873C136 11.6527 135.993 11.6342 135.938 11.6377C135.938 11.6377 135.555 11.6536 135.2 11.7229Z" fill="rgb(255,255,255)" fill-rule="evenodd" />
			<path id="Fill 15" d="M124.844 19.2396C124.866 19.2179 124.886 19.1945 124.906 19.1716C124.948 19.1236 124.997 19.1477 125.039 19.1684C125.046 19.1719 125.053 19.1754 125.06 19.1784C125.103 19.1972 125.144 19.2149 125.384 19.3195C125.819 19.5094 126.254 19.7 126.689 19.8911C126.959 20.0097 127.232 20.1224 127.498 20.2474C127.535 20.2645 127.529 20.2998 127.519 20.3147C127.015 21.0534 126.375 21.6526 125.583 22.0952C124.665 22.6082 123.652 22.865 122.546 22.865C120.918 22.865 119.528 22.2989 118.376 21.1677C117.225 20.0362 116.649 18.6617 116.649 17.0447C116.649 15.3118 117.3 13.8673 118.601 12.7121C119.742 11.7067 121.054 11.2036 122.535 11.2036C123.607 11.2036 124.614 11.4656 125.557 11.9885C126.499 12.5121 127.235 13.2221 127.764 14.1192C128.018 14.5507 128.211 14.9988 128.343 15.4632C128.343 15.4632 128.557 16.2146 128.557 17.0241C128.557 17.3619 128.518 17.6945 128.518 17.6945C128.5 17.8336 128.339 17.8325 128.332 17.8325L128.332 17.8325C127.685 17.8324 126.288 17.8324 125.64 17.8325L119.751 17.8325C119.751 17.8325 119.669 17.8324 119.651 17.8325C119.625 17.8329 119.603 17.8529 119.593 17.8699C119.584 17.8853 119.58 17.907 119.588 17.937C119.629 18.0922 119.681 18.2408 119.743 18.383C119.886 18.7066 120.085 18.9965 120.347 19.2492C120.936 19.8181 121.683 20.102 122.587 20.102C123.492 20.102 124.243 19.8146 124.844 19.2396ZM120.361 14.8254C120.957 14.2534 121.704 13.967 122.601 13.967C123.519 13.967 124.273 14.25 124.862 14.8154C125.073 15.017 125.221 15.2064 125.354 15.4525C125.369 15.4806 125.405 15.5445 125.415 15.5749C125.442 15.6601 125.376 15.6601 125.376 15.6601L119.846 15.6601C119.846 15.6601 119.766 15.6601 119.804 15.5829C119.843 15.5059 119.886 15.4311 119.931 15.3578C120.05 15.167 120.19 14.9883 120.361 14.8254Z" fill="rgb(255,255,255)" fill-rule="evenodd" />
			<path id="Fill 17" d="M43.2559 7.98479L48.7967 11.1095C49.1909 11.3319 49.434 11.7429 49.434 12.1876L49.434 18.4369C49.434 18.8819 49.1909 19.2929 48.7967 19.5153L43.2559 22.6401C42.8612 22.8623 42.3755 22.8623 41.981 22.6401L36.4402 19.5153C36.046 19.2929 35.8027 18.8819 35.8027 18.4369L35.8027 12.1876C35.8027 11.7429 36.0457 11.3319 36.4402 11.1095L41.981 7.98479C42.3755 7.76223 42.8612 7.76223 43.2559 7.98479ZM46.174 17.0158C46.174 17.2032 46.0716 17.3763 45.9055 17.4701L42.8848 19.1735C42.7188 19.2673 42.5139 19.2673 42.3476 19.1735L39.3271 17.4701C39.1605 17.3763 39.0586 17.2032 39.0586 17.0158L39.0586 13.6089C39.0586 13.4215 39.1605 13.2483 39.3271 13.1543L42.3476 11.451C42.5139 11.3573 42.7188 11.3573 42.8848 11.451L45.9055 13.1543C46.0716 13.2483 46.174 13.4215 46.174 13.6089L46.174 17.0158Z" fill="rgb(255,255,255)" fill-rule="evenodd" />
		</g>
		<g id="编组" mask="url(#mask_1)">
			<path id="Fill 19" d="M15.4282 0.261169L27.8669 7.28644C28.4836 7.63467 28.8633 8.27827 28.8633 8.97458L28.8633 23.0253C28.8633 23.7219 28.4836 24.3652 27.8669 24.7136L15.4282 31.739C14.8115 32.0871 14.0519 32.0871 13.4354 31.739L0.996375 24.7136C0.379723 24.3652 0 23.7219 0 23.0253L0 8.97458C0 8.27827 0.379723 7.63467 0.996375 7.28644L13.4354 0.261169C14.0519 -0.0870562 14.8115 -0.0870562 15.4282 0.261169ZM16.9709 11.5082C18.0228 11.8368 19.4791 11.5452 20.1579 10.8675C20.8124 10.2139 20.4555 9.4818 19.4205 9.22056C18.8533 9.07747 18.1917 9.10226 17.6063 9.25513C17.1204 9.3346 16.6183 9.32653 16.1967 9.21305C15.7675 9.09745 15.503 8.89387 15.4118 8.65657C15.4067 8.61421 15.3954 8.57341 15.3804 8.53346C15.3796 8.52793 15.3785 8.52269 15.3779 8.51717L15.3739 8.51603C15.2809 8.2946 15.0363 8.11369 14.6515 8.01665C14.6384 8.01353 14.6245 8.01112 14.6115 8.00815C14.2315 7.88985 13.7291 7.86463 13.1963 7.96125C12.1448 8.15237 11.3756 8.74497 11.478 9.28502C11.4831 9.31208 11.4664 9.53747 11.4593 9.58621C11.426 9.81642 11.2357 10.069 10.9288 10.3097C10.6283 10.5453 10.3866 10.6781 9.98126 10.7968C9.87453 10.8281 9.57141 10.8627 9.39777 10.8717C9.3417 10.8747 9.27355 10.8759 9.19845 10.8772C9.0051 10.8807 8.76565 10.8849 8.56736 10.9214C8.16519 10.9954 7.79778 11.1861 7.62834 11.3823C7.36332 11.69 7.34869 11.9719 7.36867 12.2571C7.39996 12.4376 7.39489 12.608 7.39271 12.6154L7.39083 12.6168C7.37056 12.9472 7.13754 13.3288 6.69047 13.6796C6.23515 14.0366 5.6534 14.287 5.08845 14.3986L5.08599 14.4006C4.49338 14.5014 3.86485 14.7599 3.349 15.1534C2.34929 15.9159 2.11671 16.9254 2.89527 17.4012C3.35189 17.68 4.04762 17.7067 4.75855 17.5186C5.32611 17.4356 5.86977 17.4955 6.28121 17.728C6.52233 17.864 6.70018 18.0395 6.80749 18.2509C6.88743 18.4086 6.90307 18.5317 6.90307 18.5317C6.92277 18.6095 6.92465 18.7547 6.92465 18.7579L6.92537 18.7615C6.84369 19.3823 7.01169 19.9151 7.5904 20.2684C8.64658 20.9134 10.4318 20.5777 11.4799 19.5313C12.4812 18.5317 12.3566 17.322 11.2905 16.8129C10.7103 16.5361 9.96012 16.5164 9.24528 16.7056C8.67062 16.7877 8.11538 16.7301 7.69481 16.5142C7.26788 16.295 7.04905 15.9536 7.06136 15.5764C7.06426 15.4851 7.13117 15.2182 7.18591 15.1004C7.28178 14.8952 7.44905 14.5543 7.82414 14.193C8.29901 13.736 8.86425 13.5807 9.13941 13.5099C9.34086 13.4579 9.66729 13.3937 9.73955 13.3876C10.2887 13.3416 10.7798 13.3356 11.1998 13.5041C11.6175 13.6715 11.9246 13.9399 11.9494 14.2748C11.9808 14.7039 12.1888 15.1683 12.7795 15.4223C13.8454 15.8807 15.4496 15.5682 16.283 14.7358C17.0836 13.9368 16.8163 13.0047 15.7584 12.6405C15.1807 12.4416 14.4762 12.4487 13.8328 12.6177C13.3062 12.6991 12.7775 12.6706 12.3524 12.5144C11.9201 12.3553 11.6359 12.0976 11.6227 11.7964C11.6135 11.5815 11.7468 11.0032 12.1472 10.6775C12.469 10.4158 12.8557 10.2518 13.3017 10.1064C13.468 10.0522 13.7275 9.99733 13.851 9.98246C14.3362 9.92466 14.8201 9.91318 15.2387 10.0357C15.6547 10.1571 16.0324 10.3817 16.0457 10.6266C16.0629 10.9447 16.3857 11.3255 16.9709 11.5082ZM25.8903 12.4766C25.2541 13.2647 23.6183 13.5845 22.3187 13.1788C21.0787 12.7914 20.679 11.9029 21.3507 11.2026C21.998 10.5282 23.4461 10.2371 24.653 10.5418C25.9139 10.86 26.5008 11.7203 25.8903 12.4766ZM17.6994 22.8808C16.6627 24.1721 14.5922 24.5452 13.206 23.6987C11.9007 22.9014 11.7854 21.359 12.8346 20.2615C13.8354 19.2143 15.6139 18.8775 16.9091 19.4959C18.2778 20.1491 18.6834 21.6551 17.6994 22.8808Z" fill="rgb(255,255,255)" fill-rule="evenodd" />
		</g>
	</g>
</svg>
