<svg viewBox="0 0 24 24" xmlns="http://www.w3.org/2000/svg" xmlns:xlink="http://www.w3.org/1999/xlink" width="24.000000" height="24.000000" fill="none" customFrame="#000000">
	<rect id="icon/01公共图标/鲲鹏/24px/人" width="24.000000" height="24.000000" x="0.000000" y="0.000000" />
	<g id="编组 13">
		<rect id="矩形" width="24.000000" height="24.000000" x="0.000000" y="0.000000" fill="rgb(216,216,216)" fill-opacity="0" />
		<rect id="矩形" width="23.000000" height="23.000000" x="0.500000" y="0.500000" stroke="rgb(151,151,151)" stroke-opacity="0" stroke-width="1.000000" />
		<path id="形状结合" d="M7.05772 7.74722C7.05772 5.01767 9.27046 2.80493 12 2.80493C14.7296 2.80493 16.9423 5.01767 16.9423 7.74722C16.9423 10.4768 14.7296 12.6895 12 12.6895C11.9561 12.6895 11.9122 12.6889 11.8686 12.6878C7.62582 12.7559 4.21543 16.1162 4.21543 20.242C4.21543 20.6286 3.90203 20.942 3.51543 20.942C3.12883 20.942 2.81543 20.6286 2.81543 20.242C2.81543 16.2838 5.44722 12.9299 9.0931 11.7447C7.85948 10.846 7.05772 9.39026 7.05772 7.74722ZM12.0573 11.2891C12.0384 11.2875 12.0193 11.2867 12 11.2867C11.9598 11.2867 11.9196 11.287 11.8795 11.2875C9.97893 11.2239 8.45772 9.66323 8.45772 7.74722C8.45772 5.79087 10.0437 4.20493 12 4.20493C13.9564 4.20493 15.5423 5.79087 15.5423 7.74722C15.5423 9.68443 13.9873 11.2584 12.0573 11.2891ZM16.3373 12.3463C19.2959 13.8943 21.1846 16.9044 21.1846 20.242C21.1846 20.6286 20.8712 20.942 20.4846 20.942C20.098 20.942 19.7846 20.6286 19.7846 20.242C19.7846 17.4343 18.1926 14.8971 15.6882 13.5868C15.3457 13.4075 15.2133 12.9846 15.3925 12.642C15.5717 12.2995 15.9947 12.1671 16.3373 12.3463Z" fill="rgb(0,0,0)" fill-opacity="0.800000012" fill-rule="evenodd" />
	</g>
</svg>
