<svg viewBox="0 0 24 24" xmlns="http://www.w3.org/2000/svg" xmlns:xlink="http://www.w3.org/1999/xlink" width="24.000000" height="24.000000" fill="none" customFrame="#000000">
	<rect id="icon/01公共图标/鲲鹏/24px/人备份" width="24.000000" height="24.000000" x="0.000000" y="0.000000" />
	<g id="编组 88">
		<rect id="矩形" width="24.000000" height="24.000000" x="0.000000" y="0.000000" fill="rgb(216,216,216)" fill-opacity="0" />
		<rect id="矩形" width="23.000000" height="23.000000" x="0.500000" y="0.500000" stroke="rgb(151,151,151)" stroke-opacity="0" stroke-width="1.000000" />
		<path id="形状结合" d="M12.0005 2.30005C11.5637 2.30005 11.1317 2.32897 10.7069 2.38652C10.1922 2.45624 9.93005 3.04255 10.2213 3.47265C10.921 4.50608 11.3005 5.72385 11.3005 7.00005C11.3005 10.4794 8.47992 13.3 5.00052 13.3C4.43775 13.3 3.88631 13.2264 3.35538 13.0824C2.85413 12.9465 2.38458 13.3845 2.48546 13.894C3.37817 18.4024 7.34935 21.7 12.0005 21.7C17.3577 21.7 21.7005 17.3572 21.7005 12C21.7005 6.64289 17.3577 2.30005 12.0005 2.30005ZM12.0005 3.70005L11.9581 3.70105L12.0163 3.82254C12.4188 4.70983 12.651 5.67222 12.6934 6.66723L12.7005 7.00005C12.7005 11.2526 9.25312 14.7 5.00052 14.7C4.77163 14.7 4.54406 14.69 4.31829 14.6702L4.13213 14.649L4.20807 14.8666C5.35528 17.9901 8.31032 20.1879 11.7361 20.2959L12.0005 20.3C16.5845 20.3 20.3005 16.584 20.3005 12C20.3005 7.41609 16.5845 3.70005 12.0005 3.70005Z" fill="rgb(0,0,0)" fill-opacity="0.800000012" fill-rule="evenodd" />
	</g>
</svg>
