<svg viewBox="0 0 24 24" xmlns="http://www.w3.org/2000/svg" xmlns:xlink="http://www.w3.org/1999/xlink" width="24.000000" height="24.000000" fill="none" customFrame="#000000">
	<g id="组合 8571">
		<rect id="矩形" width="24.000000" height="24.000000" x="0.000000" y="0.000000" fill="rgb(216,216,216)" fill-opacity="0" />
		<rect id="矩形" width="23.750000" height="23.750000" x="0.125000" y="0.125000" />
		<path id="形状结合" d="M11.9985 3.3042C11.9819 3.30414 11.9653 3.30469 11.9487 3.30585C7.16357 3.32922 3.29199 7.21536 3.29199 12.0057C3.29199 16.7868 7.14844 20.6671 11.9209 20.7054C11.9468 20.7083 11.9731 20.7097 11.9995 20.7096C12.0249 20.7096 12.0503 20.7082 12.0762 20.7053C12.3883 20.7024 12.6965 20.683 13 20.648L13 18.1336C12.7918 18.3712 12.5726 18.5972 12.3423 18.8113C12.23 18.9158 12.1152 19.0174 11.998 19.1164C11.8804 19.0174 11.7656 18.9158 11.6533 18.8113C11.3799 18.5571 11.1221 18.2862 10.8799 17.9989C10.6299 17.7029 10.4004 17.3937 10.1909 17.0714C10.0156 16.8018 9.854 16.5227 9.70703 16.2346C9.37842 15.5912 9.12842 14.9188 8.95801 14.2174C8.90186 13.9876 8.85498 13.7564 8.81689 13.5238C8.77246 13.2531 8.74023 12.9804 8.71973 12.7057L13 12.7057L13 11.3058L8.71973 11.3058C8.74023 11.0319 8.77246 10.76 8.81689 10.49C8.85498 10.2574 8.90186 10.0262 8.95801 9.79651C9.04053 9.45667 9.1416 9.12363 9.26172 8.79742C9.38916 8.45029 9.5376 8.11087 9.70703 7.77918C9.854 7.49106 10.0156 7.21207 10.1909 6.94229C10.4004 6.62009 10.6299 6.31097 10.8799 6.01492C11.1221 5.72754 11.3804 5.4567 11.6533 5.20239C11.7656 5.09796 11.8804 4.99634 11.998 4.89752C12.1152 4.99634 12.23 5.09796 12.3423 5.20239C12.6157 5.4567 12.8735 5.72754 13.1157 6.01492C13.3657 6.31097 13.5952 6.62009 13.8047 6.94229L13.8047 6.94244C13.9805 7.21219 14.1416 7.49109 14.2886 7.77918C14.458 8.11087 14.6064 8.45029 14.7344 8.79742C14.854 9.12363 14.9551 9.45667 15.0381 9.79651C15.0938 10.0262 15.1406 10.2574 15.1792 10.49L15.1792 10.4902C15.2067 10.6593 15.2297 10.8292 15.248 10.9999L16.655 10.9999C16.6339 10.7731 16.6057 10.5475 16.5703 10.3229L16.5703 10.3228C16.5244 10.0352 16.4673 9.74936 16.3984 9.46545C16.3027 9.07245 16.1855 8.68735 16.0469 8.31018C15.9004 7.91205 15.73 7.52274 15.5356 7.14224C15.3638 6.80643 15.1758 6.48148 14.9707 6.16739C14.7319 5.80087 14.4702 5.44913 14.186 5.11215C14.1587 5.0799 14.1313 5.04779 14.1035 5.01587C16.7949 5.82787 18.8306 8.15171 19.2232 10.9999L20.6344 10.9999C20.1379 6.68703 16.4874 3.33398 12.0483 3.30594C12.0317 3.30475 12.0151 3.30417 11.9985 3.3042ZM4.7251 11.3058L7.31641 11.3058C7.33789 10.9758 7.37402 10.6482 7.42578 10.3229L7.42578 10.3228C7.47119 10.0352 7.52832 9.74936 7.59766 9.46545C7.69336 9.07245 7.81055 8.68735 7.94922 8.31018C8.09521 7.91205 8.26562 7.52274 8.46045 7.14224C8.63184 6.80643 8.81982 6.48148 9.0249 6.16739L9.02539 6.16675C9.26416 5.80048 9.52588 5.44894 9.80957 5.11215C9.83838 5.07828 9.86719 5.04459 9.896 5.01111C7.10107 5.84741 5.00977 8.31326 4.7251 11.3058ZM4.7251 12.7057C5.00977 15.6973 7.09961 18.1625 9.89355 18.9996C9.86523 18.9671 9.8374 18.9345 9.80957 18.9016C9.52539 18.5648 9.26367 18.2129 9.0249 17.8464L9.0249 17.8462C8.81982 17.5322 8.63184 17.2073 8.46045 16.8717C8.26562 16.4911 8.09521 16.1018 7.94922 15.7036C7.81055 15.3265 7.69336 14.9414 7.59766 14.5484C7.52832 14.2644 7.47119 13.9786 7.42578 13.6909C7.37402 13.3649 7.3374 13.0365 7.31641 12.7057L4.7251 12.7057Z" fill="rgb(0,0,0)" fill-opacity="0.800000012" fill-rule="evenodd" />
		<path id="中" d="M17.5999 13.51L17.5999 11.55L18.3899 11.55L18.3899 13.51L21.8599 13.51L21.8599 18.08L21.0899 18.08L21.0899 17.45L18.3899 17.45L18.3899 20.58L17.5999 20.58L17.5999 17.45L14.8999 17.45L14.8999 18.11L14.1299 18.11L14.1299 13.51L17.5999 13.51ZM14.8999 14.2501L17.5999 14.2501L17.5999 16.7001L14.8999 16.7001L14.8999 14.2501ZM21.0899 16.7001L21.0899 14.2501L18.3899 14.2501L18.3899 16.7001L21.0899 16.7001Z" fill="rgb(0,0,0)" fill-opacity="0.800000012" fill-rule="evenodd" />
	</g>
</svg>
