<svg viewBox="0 0 136.001 32" xmlns="http://www.w3.org/2000/svg" xmlns:xlink="http://www.w3.org/1999/xlink" width="136.000977" height="32.000000" fill="none" customFrame="#000000">
	<defs>
		<filter id="pixso_custom_mask_type_alpha">
			<feColorMatrix type="matrix" values="0 0 0 0 1 0 0 0 0 1 0 0 0 0 1 0 0 0 1 0 " />
		</filter>
	</defs>
	<mask id="mask_0" width="28.863289" height="32.000000" x="0.000000" y="0.000000" maskUnits="userSpaceOnUse">
		<g filter="url(#pixso_custom_mask_type_alpha)">
			<path id="Clip 20" d="M0 0L28.8633 0L28.8633 32L0 32L0 0Z" fill="rgb(196,196,196)" fill-rule="evenodd" />
		</g>
	</mask>
	<g id="编组">
		<g id="组合 3">
			<path id="Fill 1" d="M53.7877 12.3762C54.7787 11.6553 56.0032 11.2234 57.3338 11.2234C60.6203 11.2234 63.2841 13.8253 63.2841 17.0354C63.2841 20.2451 60.6203 22.8473 57.3338 22.8473C56.0032 22.8473 54.7787 22.4155 53.7877 21.6945L53.7877 26.3814C53.7877 26.4818 53.7043 26.5631 53.6016 26.5631L51.3045 26.5631C51.2019 26.5631 51.1187 26.4818 51.1187 26.3814L51.1187 11.405C51.1187 11.3047 51.2019 11.2234 51.3045 11.2234L53.6016 11.2234C53.7043 11.2234 53.7877 11.3047 53.7877 11.405L53.7877 12.3762ZM54.1289 17.0345C54.1289 18.7645 55.5651 20.1671 57.3361 20.1671C59.1073 20.1671 60.5434 18.7645 60.5434 17.0345C60.5434 15.3044 59.1073 13.9019 57.3361 13.9019C55.5651 13.9019 54.1289 15.3044 54.1289 17.0345Z" fill="rgb(0,0,0)" fill-rule="evenodd" />
			<path id="Fill 3" d="M72.9847 19.2929C73.0071 19.2714 73.0267 19.2478 73.0467 19.225C73.0892 19.1769 73.1383 19.2011 73.1802 19.2218C73.1873 19.2253 73.1943 19.2287 73.2009 19.2317C73.2439 19.2505 73.2851 19.2682 73.5246 19.3728C73.9602 19.5628 74.3956 19.7533 74.8303 19.9444C75.1001 20.063 75.3727 20.1758 75.6391 20.3007C75.6756 20.3179 75.6703 20.3531 75.66 20.368C75.1556 21.1067 74.516 21.706 73.7239 22.1485C72.8057 22.6615 71.7927 22.9184 70.6867 22.9184C69.0587 22.9184 67.6689 22.3524 66.5174 21.221C65.3661 20.0896 64.7905 18.715 64.7905 17.098C64.7905 15.3651 65.4408 13.9206 66.7421 12.7656C67.8831 11.76 69.1947 11.2571 70.6765 11.2571C71.7475 11.2571 72.7546 11.5189 73.6978 12.0418C74.6404 12.5655 75.3763 13.2756 75.9047 14.1725C76.1592 14.604 76.3524 15.0521 76.4845 15.5165C76.4845 15.5165 76.6981 16.2679 76.6979 17.0775C76.6978 17.4152 76.6588 17.7478 76.6588 17.7478C76.6414 17.887 76.4803 17.8859 76.4735 17.8858L76.4733 17.8858C75.8257 17.8857 74.4289 17.8857 73.7811 17.8858L67.8922 17.8858C67.8922 17.8858 67.8096 17.8857 67.7921 17.8858C67.7659 17.8862 67.7446 17.9062 67.7345 17.9232C67.7252 17.9387 67.7211 17.9603 67.7291 17.9905C67.7695 18.1455 67.8218 18.2941 67.8844 18.4363C68.0267 18.7599 68.2261 19.0498 68.4883 19.3025C69.0774 19.8715 69.8242 20.1554 70.7284 20.1554C71.6325 20.1554 72.3844 19.8679 72.9847 19.2929ZM68.5012 14.8775C69.0976 14.3055 69.8445 14.0193 70.7415 14.0193C71.6597 14.0193 72.413 14.3021 73.0029 14.8675C73.213 15.0691 73.3619 15.2585 73.4946 15.5047C73.5096 15.5327 73.5461 15.5966 73.5557 15.627C73.5828 15.7122 73.5167 15.7122 73.5167 15.7122L67.9867 15.7122C67.9867 15.7122 67.9066 15.7122 67.945 15.635C67.9834 15.558 68.0262 15.4832 68.0717 15.4099C68.19 15.2191 68.3309 15.0404 68.5012 14.8775Z" fill="rgb(0,0,0)" fill-rule="evenodd" />
			<path id="Fill 5" d="M83.3543 11.2639C80.6137 11.2639 78.3921 13.4339 78.3921 16.1107L78.3921 19.1541L78.3921 21.3535L78.3921 22.6668C78.3921 22.775 78.4819 22.8627 78.5927 22.8627L81.0597 22.8627C81.1706 22.8627 81.2604 22.775 81.2604 22.6668L81.2604 21.3535L81.2604 20.5002L81.2604 19.1541L81.2604 16.1107C81.2604 14.9811 82.1979 14.0654 83.3543 14.0654C84.5105 14.0654 85.4481 14.9811 85.4481 16.1107L85.4481 19.1541L85.4481 20.5002L85.4481 21.3535L85.4481 22.6668C85.4481 22.775 85.5379 22.8627 85.6487 22.8627L88.1157 22.8627C88.2267 22.8627 88.3165 22.775 88.3165 22.6668L88.3165 21.3535L88.3165 19.1541L88.3165 16.1107C88.3165 13.4339 86.0947 11.2639 83.3543 11.2639Z" fill="rgb(0,0,0)" fill-rule="evenodd" />
			<path id="Fill 7" d="M99.5618 10.6229C99.6726 10.6229 99.7623 10.5351 99.7623 10.427L99.7623 8.0138C99.7623 7.90556 99.6726 7.81787 99.5618 7.81787L92.7388 7.81787L90.1234 7.81787C90.0126 7.81787 89.9229 7.90556 89.9229 8.0138L89.9229 10.427L89.9229 13.5202L89.9229 15.9333L89.9229 20.2697L89.9229 22.6829C89.9229 22.7911 90.0126 22.8788 90.1234 22.8788L92.7388 22.8788L99.5618 22.8788C99.6726 22.8788 99.7623 22.7911 99.7623 22.6829L99.7623 20.2697C99.7623 20.1614 99.6726 20.0737 99.5618 20.0737L92.9393 20.0737L92.9393 16.1294L99.222 16.1294C99.3329 16.1294 99.4227 16.0415 99.4227 15.9333L99.4227 13.5202C99.4227 13.412 99.3329 13.3243 99.222 13.3243L92.9393 13.3243L92.9393 10.6229L99.5618 10.6229Z" fill="rgb(0,0,0)" fill-rule="evenodd" />
			<path id="Fill 9" d="M105.807 22.8333C103.067 22.8333 100.845 20.6634 100.845 17.9865L100.845 14.9432L100.845 12.7436L100.845 11.4303C100.845 11.3222 100.935 11.2344 101.046 11.2344L103.513 11.2344C103.624 11.2344 103.714 11.3222 103.714 11.4303L103.714 12.7436L103.714 13.597L103.714 14.9432L103.714 17.9865C103.714 19.116 104.651 20.0317 105.807 20.0317C106.964 20.0317 107.901 19.116 107.901 17.9865L107.901 14.9432L107.901 13.597L107.901 12.7436L107.901 11.4303C107.901 11.3222 107.991 11.2344 108.102 11.2344L110.569 11.2344C110.68 11.2344 110.77 11.3222 110.77 11.4303L110.77 12.7436L110.77 14.9432L110.77 17.9865C110.77 20.6634 108.548 22.8333 105.807 22.8333Z" fill="rgb(0,0,0)" fill-rule="evenodd" />
			<path id="Fill 11" d="M115.074 22.8121L112.357 22.8121C112.317 22.8121 112.285 22.7803 112.285 22.7412L112.285 7.88871C112.285 7.84961 112.317 7.81787 112.357 7.81787L115.074 7.81787C115.114 7.81787 115.146 7.84961 115.146 7.88871L115.146 22.7412C115.146 22.7803 115.114 22.8121 115.074 22.8121Z" fill="rgb(0,0,0)" fill-rule="evenodd" />
			<path id="Fill 13" d="M135.2 11.7229C134.27 11.9039 133.47 12.3261 132.861 12.8976L132.861 11.4259C132.861 11.3177 132.772 11.23 132.661 11.23L130.358 11.23C130.247 11.23 130.157 11.3177 130.157 11.4259L130.157 22.69C130.157 22.7982 130.247 22.8859 130.358 22.8859L132.661 22.8859C132.772 22.8859 132.861 22.7982 132.861 22.69L132.861 16.8291C132.913 16.2506 133.082 15.8377 133.487 15.419C134.061 14.7454 134.86 14.3389 135.831 14.1498C135.875 14.1414 135.919 14.1368 135.919 14.1368C135.963 14.1329 136 14.1079 136 14.0547C135.996 12.612 135.999 12.0869 136 12.0573C136.002 11.9865 136 11.7454 136 11.6873C136 11.6527 135.993 11.6342 135.938 11.6377C135.938 11.6377 135.555 11.6536 135.2 11.7229Z" fill="rgb(0,0,0)" fill-rule="evenodd" />
			<path id="Fill 15" d="M124.844 19.2397C124.867 19.218 124.886 19.1946 124.906 19.1717C124.949 19.1237 124.998 19.1478 125.04 19.1685C125.047 19.1721 125.054 19.1755 125.06 19.1785C125.103 19.1973 125.144 19.215 125.384 19.3196C125.82 19.5096 126.255 19.7001 126.69 19.8912C126.959 20.0098 127.232 20.1226 127.499 20.2475C127.535 20.2647 127.53 20.2999 127.52 20.3148C127.015 21.0535 126.375 21.6528 125.583 22.0953C124.665 22.6083 123.652 22.8652 122.546 22.8652C120.918 22.8652 119.528 22.299 118.377 21.1678C117.225 20.0363 116.65 18.6618 116.65 17.0448C116.65 15.3119 117.3 13.8674 118.602 12.7122C119.742 11.7068 121.054 11.2037 122.536 11.2037C123.607 11.2037 124.614 11.4657 125.557 11.9886C126.5 12.5122 127.236 13.2222 127.764 14.1193C128.019 14.5508 128.212 14.9989 128.344 15.4633C128.344 15.4633 128.558 16.2147 128.557 17.0242C128.557 17.362 128.518 17.6946 128.518 17.6946C128.501 17.8337 128.34 17.8327 128.333 17.8326L128.333 17.8326C127.685 17.8325 126.288 17.8325 125.641 17.8326L119.752 17.8326C119.752 17.8326 119.669 17.8325 119.651 17.8326C119.625 17.833 119.604 17.853 119.594 17.87C119.585 17.8855 119.581 17.9071 119.588 17.9372C119.629 18.0923 119.681 18.2409 119.744 18.3831C119.886 18.7067 120.086 18.9966 120.348 19.2493C120.937 19.8183 121.684 20.1022 122.588 20.1022C123.492 20.1022 124.244 19.8147 124.844 19.2397ZM120.361 14.8254C120.957 14.2534 121.704 13.967 122.601 13.967C123.519 13.967 124.273 14.25 124.862 14.8154C125.073 15.017 125.221 15.2064 125.354 15.4525C125.369 15.4806 125.405 15.5445 125.415 15.5749C125.442 15.6601 125.376 15.6601 125.376 15.6601L119.846 15.6601C119.846 15.6601 119.766 15.6601 119.804 15.5829C119.843 15.5059 119.886 15.4311 119.931 15.3578C120.05 15.167 120.19 14.9883 120.361 14.8254Z" fill="rgb(0,0,0)" fill-rule="evenodd" />
			<path id="Fill 17" d="M43.2539 7.98479L48.7948 11.1095C49.189 11.3319 49.432 11.7429 49.432 12.1876L49.432 18.4369C49.432 18.8819 49.189 19.2929 48.7948 19.5153L43.2539 22.6401C42.8593 22.8623 42.3735 22.8623 41.979 22.6401L36.4383 19.5153C36.0441 19.2929 35.8008 18.8819 35.8008 18.4369L35.8008 12.1876C35.8008 11.7429 36.0438 11.3319 36.4383 11.1095L41.979 7.98479C42.3735 7.76223 42.8593 7.76223 43.2539 7.98479ZM46.1745 17.0158C46.1745 17.2032 46.0721 17.3763 45.906 17.4701L42.8853 19.1735C42.7193 19.2673 42.5144 19.2673 42.3481 19.1735L39.3276 17.4701C39.161 17.3763 39.0591 17.2032 39.0591 17.0158L39.0591 13.6089C39.0591 13.4215 39.161 13.2483 39.3276 13.1543L42.3481 11.451C42.5144 11.3573 42.7193 11.3573 42.8853 11.451L45.906 13.1543C46.0721 13.2483 46.1745 13.4215 46.1745 13.6089L46.1745 17.0158Z" fill="rgb(0,0,0)" fill-rule="evenodd" />
		</g>
		<g id="编组" mask="url(#mask_0)">
			<path id="Fill 19" d="M15.4282 0.261169L27.8669 7.28644C28.4836 7.63467 28.8633 8.27827 28.8633 8.97458L28.8633 23.0253C28.8633 23.7219 28.4836 24.3652 27.8669 24.7136L15.4282 31.739C14.8115 32.0871 14.0519 32.0871 13.4354 31.739L0.996375 24.7136C0.379723 24.3652 0 23.7219 0 23.0253L0 8.97458C0 8.27827 0.379723 7.63467 0.996375 7.28644L13.4354 0.261169C14.0519 -0.0870562 14.8115 -0.0870562 15.4282 0.261169ZM16.9705 11.5082C18.0223 11.8368 19.4786 11.5452 20.1574 10.8675C20.8119 10.2139 20.455 9.4818 19.42 9.22056C18.8529 9.07747 18.1912 9.10226 17.6058 9.25513C17.1199 9.3346 16.6178 9.32653 16.1962 9.21305C15.767 9.09745 15.5025 8.89387 15.4113 8.65657C15.4062 8.61421 15.3949 8.57341 15.3799 8.53346C15.3792 8.52793 15.378 8.52269 15.3774 8.51717L15.3734 8.51603C15.2804 8.2946 15.0358 8.11369 14.651 8.01665C14.638 8.01353 14.6241 8.01112 14.611 8.00815C14.231 7.88985 13.7286 7.86463 13.1958 7.96125C12.1443 8.15237 11.3751 8.74497 11.4775 9.28502C11.4826 9.31208 11.4659 9.53747 11.4588 9.58621C11.4255 9.81642 11.2352 10.069 10.9283 10.3097C10.6278 10.5453 10.3861 10.6781 9.98077 10.7968C9.87404 10.8281 9.57093 10.8627 9.39729 10.8717C9.34121 10.8747 9.27306 10.8759 9.19796 10.8772C9.00461 10.8807 8.76516 10.8849 8.56688 10.9214C8.16471 10.9954 7.79729 11.1861 7.62785 11.3823C7.36283 11.69 7.3482 11.9719 7.36819 12.2571C7.39947 12.4376 7.3944 12.608 7.39223 12.6154L7.39034 12.6168C7.37007 12.9472 7.13705 13.3288 6.68998 13.6796C6.23466 14.0366 5.65291 14.287 5.08796 14.3986L5.0855 14.4006C4.49289 14.5014 3.86436 14.7599 3.34851 15.1534C2.3488 15.9159 2.11622 16.9254 2.89478 17.4012C3.3514 17.68 4.04713 17.7067 4.75806 17.5186C5.32562 17.4356 5.86928 17.4955 6.28072 17.728C6.52185 17.864 6.69969 18.0395 6.807 18.2509C6.88694 18.4086 6.90258 18.5317 6.90258 18.5317C6.92228 18.6095 6.92416 18.7547 6.92416 18.7579L6.92489 18.7615C6.84321 19.3823 7.0112 19.9151 7.58991 20.2684C8.64609 20.9134 10.4313 20.5777 11.4794 19.5313C12.4807 18.5317 12.3561 17.322 11.29 16.8129C10.7098 16.5361 9.95963 16.5164 9.24479 16.7056C8.67014 16.7877 8.11489 16.7301 7.69432 16.5142C7.26739 16.295 7.04856 15.9536 7.06087 15.5764C7.06377 15.4851 7.13068 15.2182 7.18542 15.1004C7.28129 14.8952 7.44856 14.5543 7.82365 14.193C8.29852 13.736 8.86376 13.5807 9.13892 13.5099C9.34037 13.4579 9.6668 13.3937 9.73907 13.3876C10.2882 13.3416 10.7793 13.3356 11.1993 13.5041C11.617 13.6715 11.9241 13.9399 11.9489 14.2748C11.9803 14.7039 12.1883 15.1683 12.779 15.4223C13.8449 15.8807 15.4491 15.5682 16.2826 14.7358C17.0831 13.9368 16.8158 13.0047 15.7579 12.6405C15.1802 12.4416 14.4758 12.4487 13.8323 12.6177C13.3057 12.6991 12.777 12.6706 12.3519 12.5144C11.9196 12.3553 11.6354 12.0976 11.6222 11.7964C11.6131 11.5815 11.7463 11.0032 12.1467 10.6775C12.4685 10.4158 12.8552 10.2518 13.3013 10.1064C13.4675 10.0522 13.727 9.99733 13.8506 9.98246C14.3357 9.92466 14.8196 9.91318 15.2382 10.0357C15.6542 10.1571 16.0319 10.3817 16.0452 10.6266C16.0624 10.9447 16.3852 11.3255 16.9705 11.5082ZM25.8903 12.4766C25.2541 13.2647 23.6183 13.5845 22.3187 13.1788C21.0787 12.7914 20.679 11.9029 21.3507 11.2026C21.998 10.5282 23.4461 10.2371 24.653 10.5418C25.9139 10.86 26.5008 11.7203 25.8903 12.4766ZM17.6994 22.8808C16.6627 24.1721 14.5922 24.5452 13.206 23.6987C11.9007 22.9014 11.7854 21.359 12.8346 20.2615C13.8354 19.2143 15.6139 18.8775 16.9091 19.4959C18.2778 20.1491 18.6834 21.6551 17.6994 22.8808Z" fill="rgb(0,47,167)" fill-rule="evenodd" />
		</g>
	</g>
</svg>
