<svg viewBox="0 0 24 24" xmlns="http://www.w3.org/2000/svg" xmlns:xlink="http://www.w3.org/1999/xlink" width="24.000000" height="24.000000" fill="none" customFrame="#000000">
	<rect id="图标 Icon/加载" width="24.000000" height="24.000000" x="0.000000" y="0.000000" fill="rgb(255,255,255)" fill-opacity="0" />
	<g id="Loading">
		<rect id="Rectangle" width="24.000000" height="24.000000" x="0.000000" y="0.000000" />
		<path id="路径" d="M21.0067 12.1166C21.0645 12.614 21.4872 13 22 13C22.5128 13 22.9355 12.614 22.9933 12.1166L23 12L22.9963 12.2884C22.8434 18.2302 17.9787 23 12 23C5.92487 23 1 18.0751 1 12C1 6.0213 5.76976 1.15663 11.7116 1.00371L12 1L11.8834 1.00673C11.386 1.06449 11 1.48716 11 2C11 2.51284 11.386 2.93551 11.8834 2.99327L12 3L11.7346 3.00384C6.88681 3.14421 3 7.1182 3 12C3 16.9706 7.02944 21 12 21C16.8818 21 20.8558 17.1132 20.9962 12.2654L21 12L21.0067 12.1166Z" fill="rgb(0,0,0)" fill-opacity="0.101960786" fill-rule="evenodd" />
		<path id="路径" d="M12 1C18.0751 1 23 5.92487 23 12C23 12.5523 22.5523 13 22 13C21.4477 13 21 12.5523 21 12C21 7.02944 16.9706 3 12 3C11.4477 3 11 2.55228 11 2C11 1.44772 11.4477 1 12 1Z" fill="rgb(0,47,167)" fill-rule="evenodd" />
	</g>
</svg>
