<svg viewBox="0 0 85 20" xmlns="http://www.w3.org/2000/svg" xmlns:xlink="http://www.w3.org/1999/xlink" width="85.000000" height="20.000000" fill="none" customFrame="#000000">
	<defs>
		<filter id="pixso_custom_mask_type_alpha">
			<feColorMatrix type="matrix" values="0 0 0 0 1 0 0 0 0 1 0 0 0 0 1 0 0 0 1 0 " />
		</filter>
	</defs>
	<mask id="mask_2" width="18.000002" height="20.000000" x="-0.000488" y="0.000000" maskUnits="userSpaceOnUse">
		<g filter="url(#pixso_custom_mask_type_alpha)">
			<path id="Clip 20" d="M-0.000488281 0L17.9995 0L17.9995 20L-0.000488281 20L-0.000488281 0Z" fill="rgb(196,196,196)" fill-rule="evenodd" />
		</g>
	</mask>
	<g id="ç¼ç»">
		<path id="Fill 1" d="M33.7547 7.75161C34.4064 7.28171 35.2116 7.00012 36.0866 7.00012C38.2478 7.00012 39.9995 8.69631 39.9995 10.789C39.9995 12.8814 38.2478 14.5777 36.0866 14.5777C35.2116 14.5777 34.4064 14.2962 33.7547 13.8263L33.7547 16.8816C33.7547 16.9471 33.6998 17.0001 33.6323 17.0001L32.1217 17.0001C32.0543 17.0001 31.9995 16.9471 31.9995 16.8816L31.9995 7.11852C31.9995 7.05313 32.0543 7.00012 32.1217 7.00012L33.6323 7.00012C33.6998 7.00012 33.7547 7.05313 33.7547 7.11852L33.7547 7.75161ZM33.9769 10.7891C33.9769 11.917 34.9213 12.8313 36.0859 12.8313C37.2507 12.8313 38.195 11.917 38.195 10.7891C38.195 9.66128 37.2507 8.74697 36.0859 8.74697C34.9213 8.74697 33.9769 9.66128 33.9769 10.7891Z" fill="rgb(255,254.745,254.745)" fill-rule="evenodd" />
		<path id="Fill 3" d="M45.8166 11.8238C45.8298 11.8109 45.8413 11.7968 45.8531 11.7831C45.8781 11.7542 45.9069 11.7687 45.9315 11.7811C45.9357 11.7833 45.9398 11.7853 45.9437 11.7871C45.969 11.7984 45.9932 11.809 46.134 11.8718C46.3901 11.9858 46.646 12.1002 46.9016 12.2149C47.0602 12.2861 47.2204 12.3538 47.3771 12.4288C47.3985 12.4391 47.3954 12.4603 47.3893 12.4692C47.0928 12.9126 46.7168 13.2723 46.2512 13.538C45.7114 13.8459 45.1159 14.0001 44.4657 14.0001C43.5087 14.0001 42.6916 13.6604 42.0147 12.9812C41.3378 12.3021 40.9995 11.4769 40.9995 10.5063C40.9995 9.46606 41.3818 8.59898 42.1468 7.90564C42.8175 7.30202 43.5886 7.00012 44.4597 7.00012C45.0893 7.00012 45.6813 7.15728 46.2358 7.47117C46.79 7.78556 47.2226 8.21179 47.5332 8.75019C47.6828 9.00922 47.7964 9.27821 47.874 9.55697C47.874 9.55697 47.9996 10.008 47.9995 10.494C47.9994 10.6967 47.9765 10.8964 47.9765 10.8964C47.9663 10.9799 47.8716 10.9792 47.8676 10.9792L47.8675 10.9792C47.4867 10.9791 46.6656 10.9791 46.2848 10.9792L42.8229 10.9792C42.8229 10.9792 42.7743 10.9791 42.764 10.9792C42.7486 10.9795 42.7361 10.9914 42.7302 11.0017C42.7247 11.0109 42.7223 11.0239 42.727 11.042C42.7508 11.1351 42.7815 11.2243 42.8183 11.3097C42.902 11.5039 43.0192 11.6779 43.1733 11.8296C43.5196 12.1711 43.9587 12.3416 44.4902 12.3416C45.0217 12.3416 45.4637 12.169 45.8166 11.8238ZM43.1819 9.17375C43.5325 8.83035 43.9715 8.65857 44.4989 8.65857C45.0387 8.65857 45.4815 8.82831 45.8283 9.16771C45.9518 9.28872 46.0393 9.40242 46.1173 9.55022C46.1262 9.56706 46.1476 9.60542 46.1533 9.62361C46.1692 9.67481 46.1304 9.67481 46.1304 9.67481L42.8794 9.67481C42.8794 9.67481 42.8323 9.67481 42.8549 9.62846C42.8775 9.5822 42.9027 9.5373 42.9294 9.49333C42.9989 9.37878 43.0818 9.27154 43.1819 9.17375Z" fill="rgb(255,254.745,254.745)" fill-rule="evenodd" />
		<path id="Fill 5" d="M51.9995 7C50.3426 7 48.9995 8.30959 48.9995 9.9251L48.9995 11.7618L48.9995 13.0892L48.9995 13.8818C48.9995 13.9471 49.0538 14 49.1208 14L50.6123 14C50.6794 14 50.7336 13.9471 50.7336 13.8818L50.7336 13.0892L50.7336 12.5742L50.7336 11.7618L50.7336 9.9251C50.7336 9.24333 51.3004 8.69075 51.9995 8.69075C52.6986 8.69075 53.2654 9.24333 53.2654 9.9251L53.2654 11.7618L53.2654 12.5742L53.2654 13.0892L53.2654 13.8818C53.2654 13.9471 53.3197 14 53.3867 14L54.8782 14C54.9452 14 54.9995 13.9471 54.9995 13.8818L54.9995 13.0892L54.9995 11.7618L54.9995 9.9251C54.9995 8.30959 53.6563 7 51.9995 7Z" fill="rgb(255,254.745,254.745)" fill-rule="evenodd" />
		<path id="Fill 7" d="M61.8772 6.67623C61.9448 6.67623 61.9995 6.62374 61.9995 6.55915L61.9995 5.11708C61.9995 5.0524 61.9448 5 61.8772 5L57.7166 5L56.1218 5C56.0543 5 55.9995 5.0524 55.9995 5.11708L55.9995 6.55915L55.9995 8.40757L55.9995 9.84955L55.9995 12.4409L55.9995 13.8829C55.9995 13.9476 56.0543 14 56.1218 14L57.7166 14L61.8772 14C61.9448 14 61.9995 13.9476 61.9995 13.8829L61.9995 12.4409C61.9995 12.3762 61.9448 12.3238 61.8772 12.3238L57.8389 12.3238L57.8389 9.96672L61.67 9.96672C61.7377 9.96672 61.7924 9.91423 61.7924 9.84955L61.7924 8.40757C61.7924 8.34289 61.7377 8.29049 61.67 8.29049L57.8389 8.29049L57.8389 6.67623L61.8772 6.67623Z" fill="rgb(255,254.745,254.745)" fill-rule="evenodd" />
		<path id="Fill 9" d="M65.9995 14C64.3427 14 62.9995 12.6904 62.9995 11.0749L62.9995 9.23826L62.9995 7.91081L62.9995 7.11824C62.9995 7.05301 63.0538 7 63.1209 7L64.6124 7C64.6794 7 64.7336 7.05301 64.7336 7.11824L64.7336 7.91081L64.7336 8.42585L64.7336 9.23826L64.7336 11.0749C64.7336 11.7566 65.3005 12.3092 65.9995 12.3092C66.6986 12.3092 67.2654 11.7566 67.2654 11.0749L67.2654 9.23826L67.2654 8.42585L67.2654 7.91081L67.2654 7.11824C67.2654 7.05301 67.3197 7 67.3867 7L68.8783 7C68.9452 7 68.9995 7.05301 68.9995 7.11824L68.9995 7.91081L68.9995 9.23826L68.9995 11.0749C68.9995 12.6904 67.6564 14 65.9995 14Z" fill="rgb(255,254.745,254.745)" fill-rule="evenodd" />
		<path id="Fill 11" d="M71.9489 14L70.0501 14C70.0222 14 69.9995 13.981 69.9995 13.9575L69.9995 5.04252C69.9995 5.01905 70.0222 5 70.0501 5L71.9489 5C71.9768 5 71.9995 5.01905 71.9995 5.04252L71.9995 13.9575C71.9995 13.981 71.9768 14 71.9489 14Z" fill="rgb(255,254.745,254.745)" fill-rule="evenodd" />
		<path id="Fill 13" d="M84.451 7.296C83.8144 7.40473 83.2672 7.65827 82.8504 8.00148L82.8504 7.11767C82.8504 7.05266 82.789 7 82.7132 7L81.1367 7C81.0611 7 80.9995 7.05266 80.9995 7.11767L80.9995 13.8823C80.9995 13.9473 81.0611 14 81.1367 14L82.7132 14C82.789 14 82.8504 13.9473 82.8504 13.8823L82.8504 10.3626C82.8861 10.0152 83.0016 9.76716 83.2784 9.51575C83.6715 9.11119 84.2183 8.86709 84.8835 8.75351C84.9131 8.74849 84.9432 8.74568 84.9432 8.74568C84.9734 8.74339 84.9989 8.72833 84.9989 8.69642C84.9964 7.82996 84.9982 7.51465 84.9988 7.49687C85.0002 7.45433 84.999 7.30952 84.999 7.27464C84.999 7.25388 84.9939 7.24273 84.9564 7.24486C84.9564 7.24486 84.6944 7.25439 84.451 7.296Z" fill="rgb(255,254.745,254.745)" fill-rule="evenodd" />
		<path id="Fill 15" d="M77.8166 11.8239C77.8298 11.8108 77.8413 11.7968 77.8531 11.783C77.8781 11.7542 77.9068 11.7687 77.9315 11.7811C77.9357 11.7833 77.9399 11.7853 77.9438 11.7871C77.9691 11.7984 77.9932 11.8091 78.1341 11.8718C78.3902 11.9859 78.646 12.1002 78.9017 12.215C79.0602 12.2861 79.2204 12.3538 79.3772 12.4288C79.3986 12.4391 79.3954 12.4603 79.3894 12.4692C79.0929 12.9126 78.7169 13.2723 78.2512 13.538C77.7114 13.8459 77.1159 14.0001 76.4657 14.0001C75.5087 14.0001 74.6916 13.6603 74.0147 12.9813C73.3378 12.302 72.9995 11.477 72.9995 10.5063C72.9995 9.46612 73.3818 8.59905 74.1468 7.90563C74.8175 7.3021 75.5886 7.00012 76.4597 7.00012C77.0894 7.00012 77.6814 7.15736 78.2358 7.47124C78.79 7.78555 79.2226 8.21177 79.5332 8.75025C79.6828 9.00928 79.7964 9.27826 79.8741 9.55703C79.8741 9.55703 79.9997 10.0081 79.9995 10.494C79.9995 10.6967 79.9765 10.8964 79.9765 10.8964C79.9663 10.9799 79.8717 10.9793 79.8676 10.9792L79.8675 10.9792C79.4867 10.9792 78.6656 10.9792 78.2849 10.9792L74.8229 10.9792C74.8229 10.9792 74.7744 10.9792 74.764 10.9792C74.7486 10.9795 74.7361 10.9915 74.7302 11.0017C74.7248 11.011 74.7223 11.024 74.727 11.042C74.7509 11.1351 74.7815 11.2243 74.8184 11.3097C74.9021 11.5039 75.0192 11.6779 75.1733 11.8296C75.5196 12.1712 75.9587 12.3416 76.4902 12.3416C77.0218 12.3416 77.4638 12.169 77.8166 11.8239ZM75.1814 9.1741C75.532 8.8307 75.971 8.65884 76.4984 8.65884C77.0382 8.65884 77.4811 8.82866 77.8278 9.16806C77.9514 9.28907 78.0388 9.40277 78.1168 9.55048C78.1257 9.56741 78.1471 9.60576 78.1527 9.62396C78.1687 9.67515 78.1298 9.67515 78.1298 9.67515L74.879 9.67515C74.879 9.67515 74.8318 9.67515 74.8544 9.62881C74.877 9.58254 74.9022 9.53764 74.9289 9.49368C74.9985 9.37913 75.0814 9.27189 75.1814 9.1741Z" fill="rgb(255,254.745,254.745)" fill-rule="evenodd" />
		<path id="Fill 17" d="M26.9204 5.10035L30.5788 6.97655C30.8391 7.1101 30.9995 7.35687 30.9995 7.62389L30.9995 11.3763C30.9995 11.6435 30.8391 11.8903 30.5788 12.0238L26.9204 13.9001C26.6599 14.0335 26.3392 14.0335 26.0787 13.9001L22.4204 12.0238C22.1602 11.8903 21.9995 11.6435 21.9995 11.3763L21.9995 7.62389C21.9995 7.35687 22.16 7.1101 22.4204 6.97655L26.0787 5.10035C26.3392 4.96671 26.6599 4.96671 26.9204 5.10035ZM28.8514 10.5231C28.8514 10.6356 28.7838 10.7396 28.6741 10.7959L26.6797 11.8187C26.5701 11.875 26.4348 11.875 26.3251 11.8187L24.3307 10.7959C24.2208 10.7396 24.1535 10.6356 24.1535 10.5231L24.1535 8.47743C24.1535 8.36489 24.2208 8.26094 24.3307 8.20446L26.3251 7.18172C26.4348 7.12549 26.5701 7.12549 26.6797 7.18172L28.6741 8.20446C28.7838 8.26094 28.8514 8.36489 28.8514 8.47743L28.8514 10.5231Z" fill="rgb(255,254.745,254.745)" fill-rule="evenodd" />
		<g id="ç¼ç»" mask="url(#mask_2)">
			<path id="Fill 19" d="M9.62099 0.16323L17.3782 4.55403C17.7627 4.77167 17.9995 5.17392 17.9995 5.60911L17.9995 14.3908C17.9995 14.8262 17.7627 15.2282 17.3782 15.446L9.62099 19.8369C9.23642 20.0544 8.76272 20.0544 8.37825 19.8369L0.620881 15.446C0.236319 15.2282 -0.000488281 14.8262 -0.000488281 14.3908L-0.000488281 5.60911C-0.000488281 5.17392 0.236319 4.77167 0.620881 4.55403L8.37825 0.16323C8.76272 -0.0544101 9.23642 -0.0544101 9.62099 0.16323ZM10.5828 7.19287C11.2387 7.39821 12.147 7.21598 12.5703 6.79239C12.9784 6.38394 12.7559 5.92634 12.1104 5.76307C11.7567 5.67364 11.344 5.68914 10.979 5.78467C10.676 5.83435 10.3629 5.8293 10.1 5.75838C9.83226 5.68613 9.66735 5.55889 9.61045 5.41058C9.60729 5.3841 9.60024 5.3586 9.59085 5.33363C9.5904 5.33018 9.58967 5.3269 9.58931 5.32345L9.58678 5.32274C9.5288 5.18435 9.37626 5.07128 9.13629 5.01063C9.12816 5.00868 9.11949 5.00717 9.11137 5.00531C8.87438 4.93138 8.56108 4.91562 8.22881 4.976C7.57303 5.09545 7.09336 5.46583 7.15721 5.80336C7.16038 5.82027 7.14999 5.96114 7.14556 5.9916C7.12479 6.13549 7.00612 6.29336 6.81474 6.44379C6.62734 6.59104 6.4766 6.67401 6.22381 6.74821C6.15724 6.76778 5.96821 6.78938 5.85993 6.79505C5.82496 6.79688 5.78246 6.79764 5.73562 6.79848C5.61505 6.80063 5.46572 6.8033 5.34206 6.82613C5.09125 6.87235 4.86212 6.99153 4.75645 7.11416C4.59118 7.30648 4.58206 7.48268 4.59452 7.66092C4.61403 7.77372 4.61087 7.88024 4.60951 7.88484L4.60834 7.88573C4.59569 8.09221 4.45038 8.33075 4.17157 8.54999C3.88762 8.77312 3.52483 8.92957 3.17251 8.99934L3.17097 9.00058C2.8014 9.06363 2.40943 9.22513 2.08773 9.47111C1.46428 9.94765 1.31924 10.5786 1.80477 10.8759C2.08953 11.0502 2.52341 11.0669 2.96677 10.9493C3.32071 10.8975 3.65976 10.9349 3.91634 11.0802C4.06672 11.1652 4.17762 11.2749 4.24455 11.407C4.2944 11.5056 4.30416 11.5825 4.30416 11.5825C4.31644 11.6311 4.31761 11.7219 4.31761 11.7239L4.31806 11.7261C4.26713 12.1141 4.37189 12.4472 4.73279 12.668C5.39146 13.0711 6.50478 12.8613 7.15839 12.2073C7.78283 11.5825 7.70516 10.8264 7.04026 10.5083C6.67845 10.3353 6.21062 10.323 5.76482 10.4412C5.40645 10.4925 5.06018 10.4565 4.79791 10.3216C4.53166 10.1846 4.39519 9.9712 4.40287 9.7355C4.40468 9.67839 4.4464 9.51157 4.48054 9.43799C4.54033 9.30969 4.64464 9.09665 4.87856 8.87087C5.1747 8.58523 5.5272 8.48818 5.6988 8.44391C5.82443 8.41141 6.028 8.3713 6.07307 8.3675C6.41555 8.33872 6.7218 8.335 6.98372 8.44028C7.24419 8.54494 7.43575 8.71264 7.45119 8.92196C7.47079 9.19016 7.60048 9.4804 7.96888 9.63916C8.6336 9.92569 9.63402 9.73036 10.1538 9.21008C10.653 8.71069 10.4863 8.12816 9.82657 7.90052C9.4663 7.7762 9.02701 7.78063 8.62574 7.88626C8.29736 7.93717 7.96761 7.91938 7.70254 7.82171C7.43295 7.72228 7.25566 7.56122 7.24744 7.37297C7.24175 7.23865 7.32484 6.87722 7.57456 6.67365C7.77524 6.51011 8.01638 6.40758 8.29455 6.31673C8.39824 6.28282 8.56008 6.24856 8.63712 6.23926C8.93968 6.20313 9.24142 6.19596 9.50252 6.27255C9.76191 6.34843 9.99745 6.48877 10.0058 6.64187C10.0165 6.84065 10.2178 7.07865 10.5828 7.19287ZM16.1481 7.79785C15.7513 8.29042 14.7312 8.49026 13.9207 8.23667C13.1475 7.99459 12.8982 7.43925 13.3171 7.00157C13.7208 6.58011 14.6238 6.39815 15.3765 6.58861C16.1628 6.78748 16.5289 7.32511 16.1481 7.79785ZM11.0395 14.3007C10.3931 15.1078 9.10183 15.3409 8.23733 14.8119C7.42332 14.3136 7.35143 13.3496 8.00576 12.6636C8.62984 12.0091 9.739 11.7987 10.5467 12.1852C11.4003 12.5934 11.6532 13.5346 11.0395 14.3007Z" fill="rgb(255,255,255)" fill-rule="evenodd" />
		</g>
	</g>
</svg>
