<svg viewBox="0 0 85 20" xmlns="http://www.w3.org/2000/svg" xmlns:xlink="http://www.w3.org/1999/xlink" width="85.000000" height="20.000000" fill="none" customFrame="#000000">
	<defs>
		<filter id="pixso_custom_mask_type_alpha">
			<feColorMatrix type="matrix" values="0 0 0 0 1 0 0 0 0 1 0 0 0 0 1 0 0 0 1 0 " />
		</filter>
	</defs>
	<mask id="mask_1" width="18.000002" height="20.000000" x="0.000000" y="0.000000" maskUnits="userSpaceOnUse">
		<g filter="url(#pixso_custom_mask_type_alpha)">
			<path id="Clip 20" d="M0 0L18 0L18 20L0 20L0 0Z" fill="rgb(196,196,196)" fill-rule="evenodd" />
		</g>
	</mask>
	<g id="ç¼ç»">
		<path id="Fill 1" d="M33.7552 7.75149C34.4069 7.28159 35.2121 7 36.0871 7C38.2483 7 40 8.69619 40 10.7889C40 12.8813 38.2483 14.5776 36.0871 14.5776C35.2121 14.5776 34.4069 14.2961 33.7552 13.8261L33.7552 16.8815C33.7552 16.947 33.7003 17 33.6328 17L32.1222 17C32.0548 17 32 16.947 32 16.8815L32 7.1184C32 7.05301 32.0548 7 32.1222 7L33.6328 7C33.7003 7 33.7552 7.05301 33.7552 7.1184L33.7552 7.75149ZM33.978 10.7887C33.978 11.9166 34.9225 12.8309 36.0871 12.8309C37.2518 12.8309 38.1962 11.9166 38.1962 10.7887C38.1962 9.6609 37.2518 8.74658 36.0871 8.74658C34.9225 8.74658 33.978 9.6609 33.978 10.7887Z" fill="rgb(0,0,0)" fill-rule="evenodd" />
		<path id="Fill 3" d="M45.8171 11.8237C45.8303 11.8108 45.8418 11.7967 45.8535 11.783C45.8786 11.7541 45.9074 11.7686 45.932 11.781C45.9362 11.7831 45.9403 11.7852 45.9442 11.787C45.9695 11.7983 45.9937 11.8089 46.1345 11.8717C46.3906 11.9857 46.6465 12.1001 46.9021 12.2148C47.0607 12.286 47.2209 12.3537 47.3776 12.4287C47.399 12.439 47.3959 12.4602 47.3898 12.4691C47.0933 12.9125 46.7173 13.2722 46.2516 13.5379C45.7119 13.8458 45.1163 14 44.4662 14C43.5091 14 42.6921 13.6603 42.0152 12.9811C41.3383 12.302 41 11.4768 41 10.5062C41 9.46594 41.3823 8.59886 42.1473 7.90552C42.818 7.3019 43.5891 7 44.4602 7C45.0898 7 45.6818 7.15716 46.2363 7.47104C46.7905 7.78544 47.223 8.21167 47.5337 8.75006C47.6833 9.0091 47.7969 9.27808 47.8745 9.55685C47.8745 9.55685 48.0001 10.0079 48 10.4938C47.9999 10.6966 47.977 10.8962 47.977 10.8962C47.9668 10.9798 47.8721 10.9791 47.8681 10.9791L47.868 10.9791C47.4872 10.979 46.6661 10.979 46.2853 10.9791L42.8234 10.9791C42.8234 10.9791 42.7748 10.979 42.7645 10.9791C42.7491 10.9793 42.7366 10.9913 42.7307 11.0015C42.7252 11.0108 42.7228 11.0238 42.7275 11.0419C42.7513 11.135 42.782 11.2242 42.8188 11.3096C42.9025 11.5038 43.0197 11.6778 43.1738 11.8295C43.5201 12.171 43.9592 12.3414 44.4907 12.3414C45.0222 12.3414 45.4642 12.1689 45.8171 11.8237ZM43.1798 9.17363C43.5304 8.83023 43.9694 8.65845 44.4968 8.65845C45.0365 8.65845 45.4794 8.82819 45.8262 9.16759C45.9497 9.2886 46.0372 9.4023 46.1152 9.5501C46.1241 9.56694 46.1455 9.6053 46.1512 9.6235C46.1671 9.67469 46.1283 9.67469 46.1283 9.67469L42.8773 9.67469C42.8773 9.67469 42.8302 9.67469 42.8528 9.62834C42.8754 9.58208 42.9006 9.53718 42.9273 9.49321C42.9968 9.37866 43.0797 9.27142 43.1798 9.17363Z" fill="rgb(0,0,0)" fill-rule="evenodd" />
		<path id="Fill 5" d="M52 7C50.3431 7 49 8.30959 49 9.9251L49 11.7618L49 13.0892L49 13.8818C49 13.9471 49.0543 14 49.1213 14L50.6128 14C50.6798 14 50.7341 13.9471 50.7341 13.8818L50.7341 13.0892L50.7341 12.5742L50.7341 11.7618L50.7341 9.9251C50.7341 9.24333 51.3009 8.69075 52 8.69075C52.699 8.69075 53.2659 9.24333 53.2659 9.9251L53.2659 11.7618L53.2659 12.5742L53.2659 13.0892L53.2659 13.8818C53.2659 13.9471 53.3202 14 53.3871 14L54.8786 14C54.9457 14 55 13.9471 55 13.8818L55 13.0892L55 11.7618L55 9.9251C55 8.30959 53.6568 7 52 7Z" fill="rgb(0,0,0)" fill-rule="evenodd" />
		<path id="Fill 7" d="M61.8777 6.67623C61.9452 6.67623 62 6.62374 62 6.55915L62 5.11708C62 5.0524 61.9452 5 61.8777 5L57.7171 5L56.1223 5C56.0548 5 56 5.0524 56 5.11708L56 6.55915L56 8.40757L56 9.84955L56 12.4409L56 13.8829C56 13.9476 56.0548 14 56.1223 14L57.7171 14L61.8777 14C61.9452 14 62 13.9476 62 13.8829L62 12.4409C62 12.3762 61.9452 12.3238 61.8777 12.3238L57.8394 12.3238L57.8394 9.96672L61.6705 9.96672C61.7382 9.96672 61.7929 9.91423 61.7929 9.84955L61.7929 8.40757C61.7929 8.34289 61.7382 8.29049 61.6705 8.29049L57.8394 8.29049L57.8394 6.67623L61.8777 6.67623Z" fill="rgb(0,0,0)" fill-rule="evenodd" />
		<path id="Fill 9" d="M66 14C64.3432 14 63 12.6904 63 11.0749L63 9.23826L63 7.91081L63 7.11824C63 7.05301 63.0543 7 63.1214 7L64.6129 7C64.6798 7 64.7341 7.05301 64.7341 7.11824L64.7341 7.91081L64.7341 8.42585L64.7341 9.23826L64.7341 11.0749C64.7341 11.7566 65.301 12.3092 66 12.3092C66.6991 12.3092 67.2659 11.7566 67.2659 11.0749L67.2659 9.23826L67.2659 8.42585L67.2659 7.91081L67.2659 7.11824C67.2659 7.05301 67.3202 7 67.3872 7L68.8787 7C68.9457 7 69 7.05301 69 7.11824L69 7.91081L69 9.23826L69 11.0749C69 12.6904 67.6569 14 66 14Z" fill="rgb(0,0,0)" fill-rule="evenodd" />
		<path id="Fill 11" d="M71.9494 14L70.0506 14C70.0227 14 70 13.981 70 13.9575L70 5.04252C70 5.01905 70.0227 5 70.0506 5L71.9494 5C71.9773 5 72 5.01905 72 5.04252L72 13.9575C72 13.981 71.9773 14 71.9494 14Z" fill="rgb(0,0,0)" fill-rule="evenodd" />
		<path id="Fill 13" d="M84.4514 7.296C83.8148 7.40473 83.2677 7.65827 82.8509 8.00148L82.8509 7.11767C82.8509 7.05266 82.7895 7 82.7137 7L81.1372 7C81.0616 7 81 7.05266 81 7.11767L81 13.8823C81 13.9473 81.0616 14 81.1372 14L82.7137 14C82.7895 14 82.8509 13.9473 82.8509 13.8823L82.8509 10.3626C82.8866 10.0152 83.0021 9.76716 83.2789 9.51575C83.672 9.11119 84.2188 8.86709 84.8839 8.75351C84.9136 8.74849 84.9437 8.74568 84.9437 8.74568C84.9739 8.74339 84.9994 8.72833 84.9994 8.69642C84.9968 7.82996 84.9987 7.51465 84.9993 7.49687C85.0007 7.45433 84.9995 7.30952 84.9995 7.27464C84.9995 7.25388 84.9944 7.24273 84.9569 7.24486C84.9569 7.24486 84.6949 7.25439 84.4514 7.296Z" fill="rgb(0,0,0)" fill-rule="evenodd" />
		<path id="Fill 15" d="M77.8171 11.8237C77.8303 11.8107 77.8418 11.7967 77.8536 11.7829C77.8785 11.7541 77.9073 11.7686 77.932 11.781C77.9362 11.7831 77.9403 11.7852 77.9443 11.787C77.9696 11.7983 77.9937 11.8089 78.1346 11.8717C78.3907 11.9857 78.6465 12.1001 78.9022 12.2148C79.0607 12.286 79.2209 12.3537 79.3777 12.4287C79.3991 12.439 79.3959 12.4602 79.3899 12.4691C79.0934 12.9125 78.7173 13.2722 78.2517 13.5379C77.7119 13.8458 77.1164 14 76.4662 14C75.5091 14 74.6921 13.6602 74.0152 12.9811C73.3383 12.3019 73 11.4769 73 10.5062C73 9.466 73.3823 8.59893 74.1473 7.90551C74.818 7.30198 75.5891 7 76.4602 7C77.0899 7 77.6819 7.15724 78.2363 7.47112C78.7905 7.78543 79.223 8.21165 79.5337 8.75013C79.6833 9.00916 79.7969 9.27814 79.8746 9.5569C79.8746 9.5569 80.0002 10.008 80 10.4939C80 10.6966 79.977 10.8963 79.977 10.8963C79.9668 10.9798 79.8722 10.9791 79.8681 10.9791L79.868 10.9791C79.4872 10.979 78.6661 10.979 78.2854 10.9791L74.8234 10.9791C74.8234 10.9791 74.7749 10.979 74.7645 10.9791C74.7491 10.9794 74.7366 10.9914 74.7307 11.0016C74.7253 11.0108 74.7228 11.0238 74.7275 11.0419C74.7513 11.135 74.782 11.2242 74.8189 11.3096C74.9025 11.5038 75.0197 11.6778 75.1738 11.8295C75.5201 12.171 75.9592 12.3415 76.4907 12.3415C77.0223 12.3415 77.4643 12.1689 77.8171 11.8237ZM75.1798 9.17371C75.5304 8.83031 75.9694 8.65845 76.4968 8.65845C77.0366 8.65845 77.4795 8.82827 77.8262 9.16767C77.9498 9.28868 78.0372 9.40238 78.1152 9.55009C78.1242 9.56702 78.1455 9.60537 78.1511 9.62357C78.1672 9.67476 78.1282 9.67476 78.1282 9.67476L74.8774 9.67476C74.8774 9.67476 74.8302 9.67476 74.8528 9.62842C74.8754 9.58215 74.9006 9.53725 74.9273 9.49329C74.9969 9.37874 75.0798 9.2715 75.1798 9.17371Z" fill="rgb(0,0,0)" fill-rule="evenodd" />
		<path id="Fill 17" d="M26.9209 5.10023L30.5793 6.97643C30.8396 7.10998 31 7.35675 31 7.62377L31 11.3762C31 11.6434 30.8396 11.8901 30.5793 12.0237L26.9209 13.9C26.6604 14.0333 26.3396 14.0333 26.0792 13.9L22.4209 12.0237C22.1606 11.8901 22 11.6434 22 11.3762L22 7.62377C22 7.35675 22.1604 7.10998 22.4209 6.97643L26.0792 5.10023C26.3396 4.96659 26.6604 4.96659 26.9209 5.10023ZM28.8488 10.5229C28.8488 10.6355 28.7812 10.7394 28.6715 10.7957L26.6771 11.8186C26.5675 11.8749 26.4322 11.8749 26.3225 11.8186L24.3282 10.7957C24.2182 10.7394 24.1509 10.6355 24.1509 10.5229L24.1509 8.47729C24.1509 8.36475 24.2182 8.2608 24.3282 8.20431L26.3225 7.18158C26.4322 7.12535 26.5675 7.12535 26.6771 7.18158L28.6715 8.20431C28.7812 8.2608 28.8488 8.36475 28.8488 8.47729L28.8488 10.5229Z" fill="rgb(0,0,0)" fill-rule="evenodd" />
		<g id="ç¼ç»" mask="url(#mask_1)">
			<path id="Fill 19" d="M9.62147 0.16323L17.3786 4.55403C17.7632 4.77167 18 5.17392 18 5.60911L18 14.3908C18 14.8262 17.7632 15.2282 17.3786 15.446L9.62147 19.8369C9.2369 20.0544 8.7632 20.0544 8.37873 19.8369L0.621369 15.446C0.236807 15.2282 0 14.8262 0 14.3908L0 5.60911C0 5.17392 0.236807 4.77167 0.621369 4.55403L8.37873 0.16323C8.7632 -0.0544101 9.2369 -0.0544101 9.62147 0.16323ZM10.5829 7.19247C11.2388 7.3978 12.1471 7.21558 12.5704 6.79199C12.9785 6.38353 12.756 5.92594 12.1105 5.76267C11.7568 5.67324 11.3442 5.68873 10.9791 5.78427C10.6761 5.83394 10.363 5.8289 10.1001 5.75797C9.83237 5.68572 9.66745 5.55848 9.61056 5.41017C9.60739 5.3837 9.60035 5.3582 9.59096 5.33323C9.5905 5.32978 9.58978 5.3265 9.58942 5.32305L9.58689 5.32234C9.52891 5.18394 9.37637 5.07087 9.1364 5.01022C9.12827 5.00827 9.1196 5.00677 9.11147 5.00491C8.87449 4.93097 8.56118 4.91521 8.22891 4.9756C7.57313 5.09505 7.09347 5.46542 7.15732 5.80295C7.16048 5.81987 7.1501 5.96074 7.14567 5.9912C7.1249 6.13508 7.00622 6.29295 6.81485 6.44339C6.62744 6.59064 6.47671 6.6736 6.22391 6.7478C6.15735 6.76737 5.96832 6.78898 5.86003 6.79464C5.82506 6.79648 5.78257 6.79724 5.73573 6.79807C5.61515 6.80022 5.46582 6.80289 5.34216 6.82572C5.09136 6.87194 4.86223 6.99112 4.75656 7.11376C4.59128 7.30607 4.58216 7.48227 4.59463 7.66051C4.61413 7.77332 4.61097 7.87984 4.60962 7.88444L4.60844 7.88533C4.5958 8.09181 4.45048 8.33035 4.17168 8.54958C3.88773 8.77271 3.52493 8.92917 3.17261 8.99894L3.17108 9.00018C2.80151 9.06322 2.40954 9.22473 2.08784 9.4707C1.46439 9.94724 1.31934 10.5782 1.80488 10.8755C2.08964 11.0498 2.52352 11.0665 2.96687 10.9489C3.32082 10.8971 3.65986 10.9345 3.91645 11.0798C4.06682 11.1648 4.17773 11.2745 4.24465 11.4066C4.29451 11.5052 4.30426 11.5821 4.30426 11.5821C4.31655 11.6307 4.31772 11.7215 4.31772 11.7235L4.31817 11.7257C4.26723 12.1137 4.372 12.4467 4.7329 12.6676C5.39157 13.0707 6.50488 12.8609 7.1585 12.2069C7.78294 11.5821 7.70526 10.826 7.04036 10.5079C6.67856 10.3349 6.21073 10.3226 5.76493 10.4408C5.40656 10.4921 5.06029 10.4561 4.79802 10.3212C4.53177 10.1842 4.3953 9.9708 4.40298 9.73509C4.40478 9.67798 4.44651 9.51117 4.48065 9.43759C4.54044 9.30929 4.64475 9.09625 4.87867 8.87046C5.17481 8.58482 5.52731 8.48778 5.69891 8.44351C5.82454 8.41101 6.02811 8.3709 6.07318 8.36709C6.41565 8.33832 6.72191 8.3346 6.98383 8.43987C7.24429 8.54453 7.43585 8.71224 7.4513 8.92155C7.4709 9.18975 7.60059 9.48 7.96898 9.63876C8.63371 9.92529 9.63413 9.72996 10.1539 9.20967C10.6532 8.71029 10.4864 8.12776 9.82668 7.90011C9.46641 7.7758 9.02712 7.78022 8.62585 7.88586C8.29746 7.93677 7.96772 7.91897 7.70264 7.82131C7.43305 7.72187 7.25576 7.56081 7.24755 7.37257C7.24186 7.23825 7.32495 6.87681 7.57467 6.67325C7.77535 6.50971 8.01649 6.40718 8.29466 6.31633C8.39834 6.28242 8.56019 6.24815 8.63723 6.23885C8.93978 6.20273 9.24153 6.19556 9.50263 6.27215C9.76201 6.34803 9.99756 6.48837 10.0059 6.64146C10.0166 6.84024 10.2179 7.07825 10.5829 7.19247ZM16.1459 7.7975C15.7492 8.29007 14.7291 8.48991 13.9186 8.23632C13.1453 7.99425 12.896 7.4389 13.3149 7.00123C13.7186 6.57976 14.6217 6.3978 15.3744 6.58826C16.1607 6.78713 16.5267 7.32477 16.1459 7.7975ZM11.038 14.3005C10.3915 15.1076 9.10027 15.3407 8.23577 14.8116C7.42176 14.3133 7.34987 13.3493 8.0042 12.6634C8.62828 12.0089 9.73744 11.7984 10.5451 12.1849C11.3987 12.5932 11.6517 13.5344 11.038 14.3005Z" fill="rgb(0,47,167)" fill-rule="evenodd" />
		</g>
	</g>
</svg>
