<svg viewBox="0 0 150 68" xmlns="http://www.w3.org/2000/svg" xmlns:xlink="http://www.w3.org/1999/xlink" width="150.000000" height="68.000000" fill="none" customFrame="#000000">
	<defs>
		<clipPath id="clipPath_0">
			<rect width="130.000000" height="46.000000" x="11.000000" y="0.000000" fill="rgb(255,255,255)" />
		</clipPath>
	</defs>
	<g id="logo+邮箱">
		<g id="logo/openEuler文字版" customFrame="url(#clipPath_0)">
			<rect id="logo/openEuler文字版" width="130.000000" height="46.000000" x="11.000000" y="0.000000" />
			<g id="编组 2">
				<path id="Fill 1" d="M34.3407 16.6985C35.6264 15.755 37.215 15.1897 38.9414 15.1897C43.2051 15.1897 46.6612 18.5951 46.6612 22.7966C46.6612 26.9974 43.2051 30.4032 38.9414 30.4032C37.215 30.4032 35.6264 29.8381 34.3407 28.8945L34.3407 35.0287C34.3407 35.1602 34.2325 35.2666 34.0993 35.2666L31.119 35.2666C30.986 35.2666 30.8779 35.1602 30.8779 35.0287L30.8779 15.4274C30.8779 15.2961 30.986 15.1897 31.119 15.1897L34.0993 15.1897C34.2325 15.1897 34.3407 15.2961 34.3407 15.4274L34.3407 16.6985ZM34.7804 22.7966C34.7804 25.061 36.6437 26.8967 38.9414 26.8967C41.2393 26.8967 43.1024 25.061 43.1024 22.7966C43.1024 20.5323 41.2393 18.6966 38.9414 18.6966C36.6437 18.6966 34.7804 20.5323 34.7804 22.7966Z" fill="rgb(255,255,255)" fill-rule="evenodd" />
				<path id="Fill 3" d="M59.2471 25.7515C59.2763 25.7233 59.3016 25.6926 59.3276 25.6627C59.3828 25.5997 59.4464 25.6314 59.5008 25.6585C59.51 25.6631 59.519 25.6676 59.5277 25.6714C59.5835 25.6961 59.6368 25.7193 59.9476 25.8561C60.5128 26.1048 61.0776 26.3541 61.6416 26.6043C61.9916 26.7595 62.3452 26.9071 62.691 27.0706C62.7383 27.093 62.7314 27.1392 62.718 27.1587C62.0636 28.1255 61.2339 28.9098 60.2061 29.489C59.0149 30.1605 57.7006 30.4966 56.2657 30.4966C54.1537 30.4966 52.3505 29.7559 50.8566 28.2751C49.3629 26.7943 48.6162 24.9952 48.6162 22.8788C48.6162 20.6108 49.4598 18.7202 51.1482 17.2085C52.6284 15.8924 54.3301 15.2341 56.2526 15.2341C57.642 15.2341 58.9486 15.5768 60.1723 16.2612C61.3953 16.9467 62.3499 17.876 63.0356 19.0499C63.3657 19.6147 63.6163 20.2012 63.7877 20.809C63.7879 20.809 64.0648 21.7924 64.0646 22.8519C64.0644 23.294 64.0139 23.7293 64.0139 23.7293C63.9912 23.9114 63.7822 23.91 63.7734 23.9099L63.7732 23.9099C62.933 23.9098 61.1208 23.9098 60.2803 23.9099L52.6402 23.9099C52.6402 23.9099 52.5331 23.9098 52.5104 23.9099C52.4764 23.9105 52.4488 23.9366 52.4356 23.9589C52.4236 23.9791 52.4183 24.0075 52.4287 24.047C52.4811 24.2498 52.5489 24.4443 52.6301 24.6305C52.8148 25.054 53.0735 25.4334 53.4136 25.7641C54.1779 26.5088 55.1469 26.8804 56.3198 26.8804C57.4928 26.8804 58.4683 26.5042 59.2471 25.7515ZM53.4265 19.9736C54.2002 19.2249 55.1692 18.8504 56.3329 18.8504C57.5242 18.8504 58.5016 19.2205 59.2668 19.9605C59.5395 20.2243 59.7326 20.4722 59.9047 20.7945C59.9242 20.8312 59.9716 20.9148 59.984 20.9545C60.0191 21.0661 59.9335 21.0661 59.9335 21.0661L52.7589 21.0661C52.7589 21.0661 52.655 21.0661 52.7048 20.9651C52.7546 20.8642 52.8102 20.7663 52.8692 20.6704C53.0227 20.4207 53.2055 20.1869 53.4265 19.9736Z" fill="rgb(255,255,255)" fill-rule="evenodd" />
				<path id="Fill 5" d="M72.6956 15.2434C69.14 15.2434 66.2578 18.0835 66.2578 21.587L66.2578 25.5702L66.2578 28.4488L66.2578 30.1677C66.2578 30.3093 66.3743 30.4241 66.518 30.4241L69.7187 30.4241C69.8626 30.4241 69.9791 30.3093 69.9791 30.1677L69.9791 28.4488L69.9791 27.3321L69.9791 25.5702L69.9791 21.587C69.9791 20.1085 71.1953 18.9101 72.6956 18.9101C74.1957 18.9101 75.4121 20.1085 75.4121 21.587L75.4121 25.5702L75.4121 27.3321L75.4121 28.4488L75.4121 30.1677C75.4121 30.3093 75.5286 30.4241 75.6724 30.4241L78.873 30.4241C79.017 30.4241 79.1335 30.3093 79.1335 30.1677L79.1335 28.4488L79.1335 25.5702L79.1335 21.587C79.1335 18.0835 76.2511 15.2434 72.6956 15.2434Z" fill="rgb(255,255,255)" fill-rule="evenodd" />
				<path id="Fill 7" d="M93.7241 14.4046C93.8678 14.4046 93.9843 14.2896 93.9843 14.1482L93.9843 10.9897C93.9843 10.8481 93.8678 10.7333 93.7241 10.7333L84.8721 10.7333L81.479 10.7333C81.3352 10.7333 81.2188 10.8481 81.2188 10.9897L81.2188 14.1482L81.2188 18.1966L81.2188 21.3549L81.2188 27.0304L81.2188 30.1889C81.2188 30.3305 81.3352 30.4453 81.479 30.4453L84.8721 30.4453L93.7241 30.4453C93.8678 30.4453 93.9843 30.3305 93.9843 30.1889L93.9843 27.0304C93.9843 26.8888 93.8678 26.774 93.7241 26.774L85.1323 26.774L85.1323 21.6115L93.2833 21.6115C93.4272 21.6115 93.5437 21.4965 93.5437 21.3549L93.5437 18.1966C93.5437 18.055 93.4272 17.9402 93.2833 17.9402L85.1323 17.9402L85.1323 14.4046L93.7241 14.4046Z" fill="rgb(255,255,255)" fill-rule="evenodd" />
				<path id="Fill 9" d="M101.827 30.3857C98.272 30.3857 95.3896 27.5457 95.3896 24.0421L95.3896 20.0589L95.3896 17.1801L95.3896 15.4613C95.3896 15.3198 95.5061 15.2048 95.6501 15.2048L98.8507 15.2048C98.9945 15.2048 99.111 15.3198 99.111 15.4613L99.111 17.1801L99.111 18.2971L99.111 20.0589L99.111 24.0421C99.111 25.5205 100.327 26.7189 101.827 26.7189C103.328 26.7189 104.544 25.5205 104.544 24.0421L104.544 20.0589L104.544 18.2971L104.544 17.1801L104.544 15.4613C104.544 15.3198 104.66 15.2048 104.804 15.2048L108.005 15.2048C108.149 15.2048 108.265 15.3198 108.265 15.4613L108.265 17.1801L108.265 20.0589L108.265 24.0421C108.265 27.5457 105.383 30.3857 101.827 30.3857Z" fill="rgb(255,255,255)" fill-rule="evenodd" />
				<path id="Fill 11" d="M113.85 30.358L110.325 30.358C110.274 30.358 110.231 30.3164 110.231 30.2653L110.231 10.826C110.231 10.7748 110.274 10.7333 110.325 10.7333L113.85 10.7333C113.902 10.7333 113.944 10.7748 113.944 10.826L113.944 30.2653C113.944 30.3164 113.902 30.358 113.85 30.358Z" fill="rgb(255,255,255)" fill-rule="evenodd" />
				<path id="Fill 13" d="M139.96 15.8442C138.753 16.0811 137.716 16.6337 136.926 17.3817L136.926 15.4555C136.926 15.3139 136.81 15.1991 136.666 15.1991L133.678 15.1991C133.535 15.1991 133.418 15.3139 133.418 15.4555L133.418 30.1981C133.418 30.3398 133.535 30.4545 133.678 30.4545L136.666 30.4545C136.81 30.4545 136.926 30.3398 136.926 30.1981L136.926 22.5273C136.994 21.7702 137.213 21.2297 137.737 20.6818C138.483 19.8001 139.519 19.2681 140.78 19.0206C140.836 19.0097 140.893 19.0035 140.893 19.0035C140.95 18.9985 140.999 18.9657 140.999 18.8962C140.994 17.0079 140.997 16.3207 140.998 16.2819C141.001 16.1892 140.999 15.8737 140.999 15.7976C140.999 15.7524 140.989 15.7281 140.918 15.7327C140.918 15.7327 140.421 15.7535 139.96 15.8442Z" fill="rgb(255,255,255)" fill-rule="evenodd" />
				<path id="Fill 15" d="M126.527 25.6829C126.557 25.6545 126.582 25.6239 126.608 25.5939C126.663 25.531 126.727 25.5626 126.781 25.5897C126.79 25.5944 126.799 25.5989 126.808 25.6028C126.864 25.6274 126.917 25.6506 127.228 25.7874C127.793 26.0361 128.358 26.2855 128.922 26.5356C129.272 26.6908 129.626 26.8384 129.971 27.002C130.019 27.0244 130.012 27.0706 129.998 27.09C129.344 28.0568 128.514 28.8411 127.487 29.4204C126.295 30.0918 124.981 30.428 123.546 30.428C121.434 30.428 119.631 29.687 118.137 28.2064C116.643 26.7255 115.896 24.9265 115.896 22.8102C115.896 20.5421 116.74 18.6516 118.428 17.1396C119.909 15.8237 121.61 15.1653 123.533 15.1653C124.922 15.1653 126.229 15.5081 127.453 16.1925C128.676 16.8778 129.63 17.8071 130.316 18.9812C130.646 19.546 130.897 20.1325 131.068 20.7403C131.068 20.7403 131.345 21.7238 131.345 22.7833C131.345 23.2253 131.294 23.6607 131.294 23.6607C131.272 23.8427 131.063 23.8413 131.054 23.8413L131.053 23.8413C130.213 23.8411 128.401 23.8411 127.561 23.8413L119.921 23.8413C119.921 23.8413 119.814 23.8411 119.791 23.8413C119.757 23.8418 119.729 23.868 119.716 23.8902C119.704 23.9104 119.699 23.9388 119.709 23.9781C119.762 24.1812 119.829 24.3757 119.911 24.5618C120.095 24.9853 120.354 25.3647 120.694 25.6955C121.458 26.4401 122.427 26.8117 123.6 26.8117C124.773 26.8117 125.749 26.4355 126.527 25.6829ZM120.707 19.9051C121.48 19.1564 122.449 18.7816 123.613 18.7816C124.805 18.7816 125.782 19.1519 126.547 19.8919C126.82 20.1558 127.013 20.4037 127.185 20.7258C127.205 20.7627 127.252 20.8463 127.264 20.886C127.3 20.9976 127.214 20.9976 127.214 20.9976L120.039 20.9976C120.039 20.9976 119.935 20.9976 119.985 20.8965C120.035 20.7957 120.09 20.6978 120.149 20.6019C120.303 20.3521 120.486 20.1183 120.707 19.9051Z" fill="rgb(255,255,255)" fill-rule="evenodd" />
				<path id="Fill 17" d="M20.6695 10.9519L27.8581 15.0415C28.3696 15.3326 28.6848 15.8705 28.6848 16.4525L28.6848 24.6318C28.6848 25.2142 28.3696 25.7521 27.8581 26.0432L20.6695 30.133C20.1575 30.4238 19.5273 30.4238 19.0155 30.133L11.8271 26.0432C11.3157 25.7521 11 25.2142 11 24.6318L11 16.4525C11 15.8705 11.3153 15.3326 11.8271 15.0415L19.0155 10.9519C19.5273 10.6606 20.1575 10.6606 20.6695 10.9519ZM24.4586 22.7719C24.4586 23.0172 24.3257 23.2438 24.1102 23.3665L20.1913 25.596C19.9759 25.7188 19.7101 25.7188 19.4944 25.596L15.5756 23.3665C15.3595 23.2438 15.2272 23.0172 15.2272 22.7719L15.2272 18.3129C15.2272 18.0676 15.3595 17.841 15.5756 17.7179L19.4944 15.4886C19.7101 15.366 19.9759 15.366 20.1913 15.4886L24.1102 17.7179C24.3257 17.841 24.4586 18.0676 24.4586 18.3129L24.4586 22.7719Z" fill="rgb(255,255,255)" fill-rule="evenodd" />
			</g>
		</g>
		<path id="" d="M5.79688 60.1953L6.7334 60.7388C6.47135 61.2537 6.11816 61.6377 5.67383 61.8906C5.23177 62.1413 4.72705 62.2666 4.15967 62.2666C3.5057 62.2666 2.91211 62.1082 2.37891 61.7915C1.84798 61.4725 1.42871 61.0259 1.12109 60.4517C0.813477 59.8774 0.659668 59.2178 0.659668 58.4727C0.659668 57.7253 0.813477 57.0645 1.12109 56.4902C1.42871 55.916 1.84798 55.4705 2.37891 55.1538C2.91211 54.8371 3.5057 54.6787 4.15967 54.6787C4.72705 54.6787 5.23177 54.8052 5.67383 55.0581C6.11816 55.3088 6.47135 55.6904 6.7334 56.2031L5.79688 56.75C5.39583 56.1143 4.83984 55.7964 4.12891 55.7964C3.47721 55.7964 2.94515 56.0345 2.53271 56.5107C2.12256 56.987 1.91748 57.6409 1.91748 58.4727C1.91748 59.3021 2.12256 59.9549 2.53271 60.4312C2.94515 60.9074 3.47721 61.1455 4.12891 61.1455C4.83984 61.1455 5.39583 60.8288 5.79688 60.1953ZM10.9746 54.6787C11.5921 54.6787 12.1663 54.8371 12.6972 55.1538C13.2304 55.4705 13.6554 55.9183 13.9721 56.4971C14.2889 57.0758 14.4472 57.7344 14.4472 58.4727C14.4472 59.2087 14.2889 59.8638 13.9721 60.438C13.6554 61.0122 13.2304 61.4611 12.6972 61.7847C12.1663 62.106 11.5921 62.2666 10.9746 62.2666C10.3593 62.2666 9.78285 62.106 9.24509 61.7847C8.7096 61.4611 8.2835 61.0122 7.96677 60.438C7.65003 59.8638 7.49167 59.2087 7.49167 58.4727C7.49167 57.7435 7.65231 57.0895 7.9736 56.5107C8.29489 55.932 8.721 55.4819 9.25192 55.1606C9.78513 54.8394 10.3593 54.6787 10.9746 54.6787ZM10.9746 61.1455C11.3961 61.1455 11.7744 61.0384 12.1093 60.8242C12.4466 60.61 12.7109 60.3024 12.9023 59.9014C13.0937 59.498 13.1894 59.0218 13.1894 58.4727C13.1894 57.9212 13.0937 57.445 12.9023 57.0439C12.7109 56.6429 12.4466 56.3353 12.1093 56.1211C11.7744 55.9046 11.3961 55.7964 10.9746 55.7964C10.5553 55.7964 10.1771 55.9046 9.83981 56.1211C9.50485 56.3353 9.23939 56.6429 9.04343 57.0439C8.84746 57.445 8.74948 57.9212 8.74948 58.4727C8.74948 59.0218 8.84746 59.498 9.04343 59.9014C9.23939 60.3024 9.50485 60.61 9.83981 60.8242C10.1771 61.0384 10.5553 61.1455 10.9746 61.1455ZM22.2598 57.6318L22.2598 62.1128L21.0704 62.1128L21.0704 57.9668C21.0704 57.2764 20.9325 56.7454 20.6568 56.374C20.3811 56.0003 19.9732 55.8135 19.4331 55.8135C19.0777 55.8135 18.7439 55.8955 18.4317 56.0596C18.1195 56.2214 17.8654 56.464 17.6695 56.7876C17.4735 57.1089 17.3755 57.5065 17.3755 57.9805L17.3755 62.1128L16.1827 62.1128L16.1827 54.8462L17.2354 54.8462C17.2536 55.3133 17.281 55.7144 17.3174 56.0493C17.5612 55.6027 17.8905 55.2632 18.3052 55.0308C18.7199 54.7961 19.1836 54.6787 19.6963 54.6787C20.4711 54.6787 21.092 54.9351 21.5591 55.4478C22.0262 55.9604 22.2598 56.6885 22.2598 57.6318ZM28.3085 61.8052C27.8984 62.1128 27.3891 62.2666 26.7807 62.2666C25.3155 62.2666 24.5829 61.4315 24.5829 59.7612L24.5829 55.8682L23.3798 55.8682L23.3798 54.8325L24.5829 54.8325L24.5829 52.8022L25.7895 52.8022L25.7895 54.8325L27.8881 54.8325L27.8881 55.8682L25.7895 55.8682L25.7895 59.6211C25.7895 60.209 25.8943 60.61 26.1039 60.8242C26.3136 61.0384 26.5859 61.1455 26.9208 61.1455C27.2672 61.1455 27.5805 61.0521 27.8608 60.8652L28.3085 61.8052ZM35.0567 57.6865L35.0567 62.1128L34.0074 62.1128C33.9778 61.6366 33.9584 61.3278 33.9493 61.1865C33.726 61.542 33.4252 61.8109 33.0469 61.9932C32.6687 62.1755 32.2369 62.2666 31.7515 62.2666C31.2844 62.2666 30.8481 62.18 30.4425 62.0068C30.0369 61.8337 29.7121 61.5773 29.4683 61.2378C29.2268 60.896 29.106 60.487 29.106 60.0107C29.106 59.293 29.3977 58.7267 29.981 58.312C30.5644 57.895 31.3175 57.6865 32.2403 57.6865C32.7644 57.6865 33.3067 57.7572 33.8673 57.8984C33.8673 56.4697 33.2976 55.7554 32.1583 55.7554C31.3357 55.7554 30.7239 56.1336 30.3228 56.8901L29.4136 56.3706C29.637 55.8488 30.0027 55.4364 30.5108 55.1333C31.0212 54.8302 31.5932 54.6787 32.2266 54.6787C32.769 54.6787 33.2543 54.7983 33.6827 55.0376C34.1134 55.2746 34.4495 55.6198 34.691 56.0732C34.9348 56.5244 35.0567 57.0622 35.0567 57.6865ZM33.8673 59.4229L33.8673 58.8931C33.2794 58.7427 32.7427 58.6675 32.2574 58.6675C31.649 58.6675 31.1796 58.7848 30.8492 59.0195C30.5188 59.252 30.3536 59.5778 30.3536 59.9971C30.3536 60.389 30.4926 60.6955 30.7706 60.9165C31.0509 61.1353 31.4154 61.2446 31.8643 61.2446C32.4158 61.2446 32.8874 61.084 33.2794 60.7627C33.6713 60.4391 33.8673 59.9925 33.8673 59.4229ZM41.8189 60.1953L42.7554 60.7388C42.4934 61.2537 42.1402 61.6377 41.6958 61.8906C41.2538 62.1413 40.7491 62.2666 40.1817 62.2666C39.5277 62.2666 38.9341 62.1082 38.4009 61.7915C37.87 61.4725 37.4507 61.0259 37.1431 60.4517C36.8355 59.8774 36.6817 59.2178 36.6817 58.4727C36.6817 57.7253 36.8355 57.0645 37.1431 56.4902C37.4507 55.916 37.87 55.4705 38.4009 55.1538C38.9341 54.8371 39.5277 54.6787 40.1817 54.6787C40.7491 54.6787 41.2538 54.8052 41.6958 55.0581C42.1402 55.3088 42.4934 55.6904 42.7554 56.2031L41.8189 56.75C41.4178 56.1143 40.8618 55.7964 40.1509 55.7964C39.4992 55.7964 38.9672 56.0345 38.5547 56.5107C38.1446 56.987 37.9395 57.6409 37.9395 58.4727C37.9395 59.3021 38.1446 59.9549 38.5547 60.4312C38.9672 60.9074 39.4992 61.1455 40.1509 61.1455C40.8618 61.1455 41.4178 60.8288 41.8189 60.1953ZM48.0065 61.8052C47.5964 62.1128 47.0871 62.2666 46.4787 62.2666C45.0135 62.2666 44.2809 61.4315 44.2809 59.7612L44.2809 55.8682L43.0778 55.8682L43.0778 54.8325L44.2809 54.8325L44.2809 52.8022L45.4875 52.8022L45.4875 54.8325L47.5861 54.8325L47.5861 55.8682L45.4875 55.8682L45.4875 59.6211C45.4875 60.209 45.5923 60.61 45.8019 60.8242C46.0116 61.0384 46.2839 61.1455 46.6188 61.1455C46.9652 61.1455 47.2785 61.0521 47.5588 60.8652L48.0065 61.8052ZM61.1942 57.4507C61.1942 58.533 60.9914 59.4103 60.5858 60.0825C60.1802 60.7547 59.5854 61.0908 58.8016 61.0908C58.3436 61.0908 57.9505 60.9746 57.6224 60.7422C57.2965 60.5075 57.0778 60.1657 56.9661 59.7168C56.7337 60.1748 56.4158 60.5166 56.0125 60.7422C55.6115 60.9655 55.1831 61.0771 54.7274 61.0771C54.2215 61.0771 53.7487 60.9416 53.3089 60.6704C52.8714 60.3993 52.5194 60.0073 52.2528 59.4946C51.9884 58.9819 51.8563 58.3747 51.8563 57.6729C51.8563 56.9733 51.9884 56.3672 52.2528 55.8545C52.5194 55.3418 52.8714 54.9499 53.3089 54.6787C53.7487 54.4076 54.2215 54.272 54.7274 54.272C55.1466 54.272 55.5431 54.3677 55.9168 54.5591C56.2905 54.7505 56.5981 55.033 56.8397 55.4067C56.867 55.2199 56.8909 54.8929 56.9115 54.4258L57.9163 54.4258L57.9163 58.6538C57.9163 59.5789 58.2251 60.0415 58.8426 60.0415C59.3006 60.0415 59.6242 59.8079 59.8133 59.3408C60.0047 58.8737 60.1004 58.271 60.1004 57.5327C60.1004 56.4412 59.8908 55.5081 59.4715 54.7334C59.0522 53.9587 58.4689 53.3685 57.7215 52.9629C56.9741 52.5573 56.1105 52.3545 55.1307 52.3545C54.1144 52.3545 53.2075 52.5767 52.41 53.021C51.6125 53.4631 50.9893 54.0828 50.5404 54.8804C50.0915 55.6779 49.867 56.5951 49.867 57.6318C49.867 58.6595 50.0858 59.5721 50.5233 60.3696C50.963 61.1672 51.5771 61.7847 52.3656 62.2222C53.1562 62.6619 54.0552 62.8818 55.0623 62.8818C55.6229 62.8818 56.1458 62.8112 56.6312 62.6699C57.1165 62.5309 57.5404 62.3407 57.9027 62.0991L58.3949 62.9365C58.0212 63.2555 57.5449 63.5005 56.9661 63.6714C56.3874 63.8446 55.7528 63.9312 55.0623 63.9312C53.8478 63.9312 52.7643 63.6646 51.8118 63.1313C50.8616 62.6004 50.1199 61.8599 49.5867 60.9097C49.0558 59.9572 48.7904 58.8646 48.7904 57.6318C48.7904 56.3991 49.0627 55.3031 49.6073 54.3438C50.1541 53.3822 50.9106 52.6359 51.8768 52.105C52.8429 51.5718 53.9378 51.3052 55.1615 51.3052C56.3372 51.3052 57.3797 51.5479 58.2889 52.0332C59.1981 52.5186 59.909 53.2261 60.4217 54.1558C60.9367 55.0832 61.1942 56.1815 61.1942 57.4507ZM56.7713 57.6729C56.7713 56.889 56.5845 56.3136 56.2108 55.9468C55.8371 55.5776 55.3836 55.3931 54.8504 55.3931C54.3013 55.3931 53.8695 55.5913 53.555 55.9878C53.2428 56.3843 53.0867 56.946 53.0867 57.6729C53.0867 58.4111 53.2451 58.9785 53.5618 59.375C53.8809 59.7715 54.3104 59.9697 54.8504 59.9697C55.3836 59.9697 55.8371 59.7852 56.2108 59.416C56.5845 59.0469 56.7713 58.4658 56.7713 57.6729ZM65.8686 54.6787C66.4861 54.6787 67.0603 54.8371 67.5912 55.1538C68.1244 55.4705 68.5494 55.9183 68.8661 56.4971C69.1829 57.0758 69.3412 57.7344 69.3412 58.4727C69.3412 59.2087 69.1829 59.8638 68.8661 60.438C68.5494 61.0122 68.1244 61.4611 67.5912 61.7847C67.0603 62.106 66.4861 62.2666 65.8686 62.2666C65.2533 62.2666 64.6768 62.106 64.1391 61.7847C63.6036 61.4611 63.1775 61.0122 62.8608 60.438C62.544 59.8638 62.3857 59.2087 62.3857 58.4727C62.3857 57.7435 62.5463 57.0895 62.8676 56.5107C63.1889 55.932 63.615 55.4819 64.1459 55.1606C64.6791 54.8394 65.2533 54.6787 65.8686 54.6787ZM65.8686 61.1455C66.2901 61.1455 66.6684 61.0384 67.0033 60.8242C67.3406 60.61 67.6049 60.3024 67.7963 59.9014C67.9877 59.498 68.0834 59.0218 68.0834 58.4727C68.0834 57.9212 67.9877 57.445 67.7963 57.0439C67.6049 56.6429 67.3406 56.3353 67.0033 56.1211C66.6684 55.9046 66.2901 55.7964 65.8686 55.7964C65.4493 55.7964 65.0711 55.9046 64.7338 56.1211C64.3989 56.3353 64.1334 56.6429 63.9374 57.0439C63.7415 57.445 63.6435 57.9212 63.6435 58.4727C63.6435 59.0218 63.7415 59.498 63.9374 59.9014C64.1334 60.3024 64.3989 60.61 64.7338 60.8242C65.0711 61.0384 65.4493 61.1455 65.8686 61.1455ZM77.8408 58.4727C77.8408 59.2565 77.6916 59.9355 77.3931 60.5098C77.0946 61.084 76.7004 61.5203 76.2105 61.8188C75.7206 62.1173 75.1999 62.2666 74.6484 62.2666C74.1813 62.2666 73.7347 62.1572 73.3086 61.9385C72.8848 61.7174 72.5384 61.3927 72.2695 60.9644L72.2695 65.4863L71.0767 65.4863L71.0767 54.8462L72.1294 54.8462C72.1476 55.3133 72.175 55.7235 72.2114 56.0767C72.4735 55.6118 72.821 55.2632 73.2539 55.0308C73.6891 54.7961 74.154 54.6787 74.6484 54.6787C75.1999 54.6787 75.7206 54.8302 76.2105 55.1333C76.7004 55.4364 77.0946 55.875 77.3931 56.4492C77.6916 57.0234 77.8408 57.6979 77.8408 58.4727ZM76.5933 58.4727C76.5933 57.6227 76.4019 56.9642 76.0191 56.4971C75.6362 56.0299 75.1281 55.7964 74.4946 55.7964C74.1118 55.7964 73.7518 55.8853 73.4146 56.063C73.0796 56.2407 72.805 56.5301 72.5908 56.9312C72.3766 57.3322 72.2695 57.846 72.2695 58.4727C72.2695 59.097 72.3766 59.6097 72.5908 60.0107C72.805 60.4118 73.0796 60.7012 73.4146 60.8789C73.7518 61.0566 74.1118 61.1455 74.4946 61.1455C75.1281 61.1455 75.6362 60.9131 76.0191 60.4482C76.4019 59.9811 76.5933 59.3226 76.5933 58.4727ZM85.7065 57.9976C85.7065 58.2573 85.6883 58.4943 85.6518 58.7085L80.4155 58.7085C80.4633 59.5402 80.7015 60.1589 81.1298 60.5645C81.5582 60.9701 82.0994 61.1729 82.7534 61.1729C83.5669 61.1729 84.1547 60.847 84.5171 60.1953L85.4296 60.7114C85.2428 61.2059 84.8942 61.5887 84.3838 61.8599C83.8756 62.131 83.3094 62.2666 82.685 62.2666C82.0311 62.2666 81.4352 62.1173 80.8974 61.8188C80.3619 61.5203 79.9381 61.084 79.6259 60.5098C79.3138 59.9355 79.1577 59.2474 79.1577 58.4453C79.1577 57.6706 79.3138 56.9984 79.6259 56.4287C79.9381 55.8591 80.3551 55.425 80.8769 55.1265C81.401 54.828 81.9752 54.6787 82.5996 54.6787C83.2262 54.6787 83.7742 54.8257 84.2436 55.1196C84.7153 55.4136 85.0765 55.8123 85.3271 56.3159C85.58 56.8195 85.7065 57.38 85.7065 57.9976ZM80.4565 57.7446L84.4213 57.7446C84.3917 57.118 84.2083 56.6326 83.8711 56.2886C83.5361 55.9422 83.0986 55.769 82.5586 55.769C82.0345 55.769 81.5787 55.9377 81.1914 56.2749C80.804 56.6099 80.559 57.0998 80.4565 57.7446ZM93.3098 57.6318L93.3098 62.1128L92.1204 62.1128L92.1204 57.9668C92.1204 57.2764 91.9825 56.7454 91.7068 56.374C91.4311 56.0003 91.0232 55.8135 90.4832 55.8135C90.1277 55.8135 89.7939 55.8955 89.4817 56.0596C89.1695 56.2214 88.9154 56.464 88.7195 56.7876C88.5235 57.1089 88.4255 57.5065 88.4255 57.9805L88.4255 62.1128L87.2327 62.1128L87.2327 54.8462L88.2854 54.8462C88.3036 55.3133 88.331 55.7144 88.3674 56.0493C88.6112 55.6027 88.9405 55.2632 89.3552 55.0308C89.7699 54.7961 90.2336 54.6787 90.7463 54.6787C91.5211 54.6787 92.142 54.9351 92.6091 55.4478C93.0763 55.9604 93.3098 56.6885 93.3098 57.6318ZM101.485 57.9976C101.485 58.2573 101.466 58.4943 101.43 58.7085L96.1935 58.7085C96.2413 59.5402 96.4795 60.1589 96.9078 60.5645C97.3362 60.9701 97.8774 61.1729 98.5314 61.1729C99.3449 61.1729 99.9327 60.847 100.295 60.1953L101.208 60.7114C101.021 61.2059 100.672 61.5887 100.162 61.8599C99.6536 62.131 99.0874 62.2666 98.463 62.2666C97.8091 62.2666 97.2132 62.1173 96.6754 61.8188C96.1399 61.5203 95.7161 61.084 95.4039 60.5098C95.0918 59.9355 94.9357 59.2474 94.9357 58.4453C94.9357 57.6706 95.0918 56.9984 95.4039 56.4287C95.7161 55.8591 96.1331 55.425 96.6549 55.1265C97.179 54.828 97.7532 54.6787 98.3776 54.6787C99.0042 54.6787 99.5522 54.8257 100.022 55.1196C100.493 55.4136 100.854 55.8123 101.105 56.3159C101.358 56.8195 101.485 57.38 101.485 57.9976ZM96.2345 57.7446L100.199 57.7446C100.17 57.118 99.9863 56.6326 99.6491 56.2886C99.3141 55.9422 98.8766 55.769 98.3366 55.769C97.8125 55.769 97.3567 55.9377 96.9694 56.2749C96.582 56.6099 96.337 57.0998 96.2345 57.7446ZM107.786 54.8325L108.975 54.8325L108.975 62.1128L107.926 62.1128C107.907 61.6366 107.88 61.2401 107.844 60.9233C107.6 61.37 107.267 61.7061 106.846 61.9316C106.426 62.1549 105.969 62.2666 105.475 62.2666C104.7 62.2666 104.079 62.0103 103.612 61.4976C103.147 60.9826 102.915 60.2546 102.915 59.3135L102.915 54.8325L104.104 54.8325L104.104 58.9888C104.104 59.6792 104.242 60.2113 104.518 60.585C104.794 60.9587 105.197 61.1455 105.728 61.1455C106.083 61.1455 106.417 61.0646 106.729 60.9028C107.042 60.7388 107.296 60.4938 107.492 60.168C107.688 59.8398 107.786 59.4377 107.786 58.9614L107.786 54.8325ZM111.131 62.1128L111.131 51.459L112.324 51.459L112.324 62.1128L111.131 62.1128ZM120.609 57.9976C120.609 58.2573 120.59 58.4943 120.554 58.7085L115.317 58.7085C115.365 59.5402 115.603 60.1589 116.032 60.5645C116.46 60.9701 117.001 61.1729 117.655 61.1729C118.469 61.1729 119.057 60.847 119.419 60.1953L120.332 60.7114C120.145 61.2059 119.796 61.5887 119.286 61.8599C118.778 62.131 118.211 62.2666 117.587 62.2666C116.933 62.2666 116.337 62.1173 115.799 61.8188C115.264 61.5203 114.84 61.084 114.528 60.5098C114.216 59.9355 114.06 59.2474 114.06 58.4453C114.06 57.6706 114.216 56.9984 114.528 56.4287C114.84 55.8591 115.257 55.425 115.779 55.1265C116.303 54.828 116.877 54.6787 117.502 54.6787C118.128 54.6787 118.676 54.8257 119.146 55.1196C119.617 55.4136 119.978 55.8123 120.229 56.3159C120.482 56.8195 120.609 57.38 120.609 57.9976ZM115.359 57.7446L119.323 57.7446C119.294 57.118 119.11 56.6326 118.773 56.2886C118.438 55.9422 118.001 55.769 117.461 55.769C116.936 55.769 116.481 55.9377 116.093 56.2749C115.706 56.6099 115.461 57.0998 115.359 57.7446ZM126.281 55.0991L125.847 56.063C125.642 55.8853 125.385 55.7964 125.078 55.7964C124.572 55.7964 124.154 56.0208 123.823 56.4697C123.493 56.9186 123.328 57.5623 123.328 58.4009L123.328 62.1128L122.135 62.1128L122.135 54.8462L123.187 54.8462C123.206 55.229 123.228 55.6209 123.256 56.022C123.666 55.1265 124.287 54.6787 125.119 54.6787C125.369 54.6787 125.595 54.7186 125.795 54.7983C125.998 54.8758 126.16 54.9761 126.281 55.0991ZM125.665 61.4531C125.665 61.2298 125.741 61.0396 125.894 60.8823C126.049 60.7228 126.234 60.6431 126.448 60.6431C126.671 60.6431 126.86 60.7228 127.015 60.8823C127.17 61.0396 127.248 61.2298 127.248 61.4531C127.248 61.6787 127.17 61.8701 127.015 62.0273C126.86 62.1869 126.671 62.2666 126.448 62.2666C126.234 62.2666 126.049 62.1846 125.894 62.0205C125.741 61.8564 125.665 61.6673 125.665 61.4531ZM131.837 54.6787C132.454 54.6787 133.028 54.8371 133.559 55.1538C134.092 55.4705 134.517 55.9183 134.834 56.4971C135.151 57.0758 135.309 57.7344 135.309 58.4727C135.309 59.2087 135.151 59.8638 134.834 60.438C134.517 61.0122 134.092 61.4611 133.559 61.7847C133.028 62.106 132.454 62.2666 131.837 62.2666C131.221 62.2666 130.645 62.106 130.107 61.7847C129.572 61.4611 129.146 61.0122 128.829 60.438C128.512 59.8638 128.354 59.2087 128.354 58.4727C128.354 57.7435 128.514 57.0895 128.836 56.5107C129.157 55.932 129.583 55.4819 130.114 55.1606C130.647 54.8394 131.221 54.6787 131.837 54.6787ZM131.837 61.1455C132.258 61.1455 132.636 61.0384 132.971 60.8242C133.309 60.61 133.573 60.3024 133.764 59.9014C133.956 59.498 134.051 59.0218 134.051 58.4727C134.051 57.9212 133.956 57.445 133.764 57.0439C133.573 56.6429 133.309 56.3353 132.971 56.1211C132.636 55.9046 132.258 55.7964 131.837 55.7964C131.417 55.7964 131.039 55.9046 130.702 56.1211C130.367 56.3353 130.101 56.6429 129.905 57.0439C129.709 57.445 129.611 57.9212 129.611 58.4727C129.611 59.0218 129.709 59.498 129.905 59.9014C130.101 60.3024 130.367 60.61 130.702 60.8242C131.039 61.0384 131.417 61.1455 131.837 61.1455ZM141.191 55.0991L140.757 56.063C140.551 55.8853 140.295 55.7964 139.988 55.7964C139.482 55.7964 139.064 56.0208 138.733 56.4697C138.403 56.9186 138.238 57.5623 138.238 58.4009L138.238 62.1128L137.045 62.1128L137.045 54.8462L138.097 54.8462C138.116 55.229 138.138 55.6209 138.166 56.022C138.576 55.1265 139.197 54.6787 140.029 54.6787C140.279 54.6787 140.505 54.7186 140.705 54.7983C140.908 54.8758 141.07 54.9761 141.191 55.0991ZM148.162 54.8325L148.162 61.6514C148.162 62.6221 147.992 63.4036 147.65 63.9961C147.31 64.5885 146.885 65.0055 146.375 65.2471C145.867 65.4909 145.329 65.6128 144.762 65.6128C144.032 65.6128 143.372 65.4373 142.779 65.0864C142.187 64.7378 141.811 64.2638 141.651 63.6646L142.56 63.1484C142.768 63.6064 143.065 63.9448 143.452 64.1636C143.84 64.3823 144.281 64.4917 144.775 64.4917C146.24 64.4917 146.973 63.5347 146.973 61.6206L146.973 60.9917C146.702 61.4224 146.358 61.7425 145.941 61.9521C145.526 62.1618 145.081 62.2666 144.604 62.2666C144.055 62.2666 143.536 62.1151 143.046 61.812C142.556 61.509 142.159 61.0703 141.856 60.4961C141.553 59.9219 141.402 59.2474 141.402 58.4727C141.402 57.6979 141.551 57.0212 141.849 56.4424C142.148 55.8636 142.544 55.425 143.039 55.1265C143.533 54.828 144.055 54.6787 144.604 54.6787C145.09 54.6787 145.549 54.7961 145.982 55.0308C146.417 55.2632 146.766 55.6073 147.028 56.063C147.076 55.6255 147.104 55.2153 147.113 54.8325L148.162 54.8325ZM146.973 58.4727C146.973 57.5566 146.753 56.8844 146.313 56.4561C145.876 56.0277 145.353 55.8135 144.744 55.8135C144.111 55.8135 143.603 56.047 143.22 56.5142C142.837 56.979 142.646 57.6318 142.646 58.4727C142.646 59.3226 142.837 59.9811 143.22 60.4482C143.603 60.9131 144.111 61.1455 144.744 61.1455C145.353 61.1455 145.876 60.9313 146.313 60.5029C146.753 60.0723 146.973 59.3955 146.973 58.4727Z" fill="rgb(255,255,255)" fill-rule="nonzero" />
	</g>
</svg>
