<svg viewBox="0 0 24 24" xmlns="http://www.w3.org/2000/svg" width="24" height="24" fill="none">
  <path fill-rule="evenodd" d="M12.0005 2.2998C11.5637 2.2998 11.1317 2.32872 10.7069 2.38627C10.1922 2.456 9.93005 3.04231 10.2213 3.47241C10.921 4.50584 11.3005 5.72361 11.3005 6.9998C11.3005 10.4792 8.47992 13.2998 5.00052 13.2998C4.43775 13.2998 3.88631 13.2262 3.35538 13.0822C2.85413 12.9462 2.38458 13.3843 2.48546 13.8937C3.37817 18.4022 7.34935 21.6998 12.0005 21.6998C17.3577 21.6998 21.7005 17.357 21.7005 11.9998C21.7005 6.64264 17.3577 2.2998 12.0005 2.2998ZM11.9992 3.6998L11.9568 3.7008L12.015 3.82229C12.4175 4.70959 12.6497 5.67198 12.6921 6.66699L12.6992 6.9998C12.6992 11.2524 9.2518 14.6998 4.99921 14.6998C4.77031 14.6998 4.54274 14.6898 4.31698 14.6699L4.13081 14.6488L4.20675 14.8663C5.35397 17.9899 8.309 20.1877 11.7348 20.2956L11.9992 20.2998C16.5832 20.2998 20.2992 16.5838 20.2992 11.9998C20.2992 7.41584 16.5832 3.6998 11.9992 3.6998Z" fill="rgb(0,0,0)" fill-opacity="0.8"/>
</svg>
